<svg xmlns="http://www.w3.org/2000/svg" viewBox="0 0 287.76 291.12"><defs><style>.cls-1{fill:#fff;}</style></defs><title>Fichier 1</title><g id="Calque_2" data-name="Calque 2"><g id="Calque_1-2" data-name="Calque 1"><circle class="cls-1" cx="192.66" cy="285.21" r="5.9"/><circle class="cls-1" cx="147.55" cy="26.41" r="5.9"/><path class="cls-1" d="M192.9,286l-.48-1.59a133,133,0,0,0,67.11-46.8,130.11,130.11,0,0,0,26.56-79.11c0-72.46-58.95-131.41-131.41-131.41-2.37,0-4.82.06-7.09.18l-.09-1.67c2.3-.12,4.78-.18,7.18-.18,73.38,0,133.08,59.7,133.08,133.08a131.74,131.74,0,0,1-26.9,80.11A134.64,134.64,0,0,1,192.9,286Z"/><circle class="cls-1" cx="48.83" cy="84.04" r="5.9"/><circle class="cls-1" cx="234.05" cy="230.36" r="5.9"/><path class="cls-1" d="M48.09,264.57c-.87-.83-2.17-2.09-3.23-3.14A153.24,153.24,0,0,1,93.54,12,152.1,152.1,0,0,1,122.28,3.1,155.33,155.33,0,0,1,184,3.1,152,152,0,0,1,212.76,12a153.7,153.7,0,0,1,26,14.12,143.51,143.51,0,0,1,14.34,11L252,38.37a141.92,141.92,0,0,0-14.19-10.85A150.88,150.88,0,0,0,183.68,4.73a153.83,153.83,0,0,0-61.06,0A150.83,150.83,0,0,0,68.45,27.52,152.05,152.05,0,0,0,13.57,94.17,150.52,150.52,0,0,0,4.74,122.6a153.34,153.34,0,0,0,0,61.06,150.61,150.61,0,0,0,22.8,54.17A153.24,153.24,0,0,0,46,260.25c1,1.05,2.35,2.29,3.21,3.11Z"/><circle class="cls-1" cx="252.58" cy="37.43" r="5.9"/><circle class="cls-1" cx="48.67" cy="263.96" r="5.9"/><path class="cls-1" d="M143.72,273.22A119,119,0,0,1,24.81,154.31,117.78,117.78,0,0,1,48.16,83.55l1.34,1a116.1,116.1,0,0,0-23,69.77,117.25,117.25,0,0,0,206.93,75.52l1.27,1.07A118.48,118.48,0,0,1,143.72,273.22Z"/><path class="cls-1" d="M52.65,177.53a2.35,2.35,0,0,1-3.22,0,4.35,4.35,0,0,1,0-4.91,2.35,2.35,0,0,1,3.22,0,4.35,4.35,0,0,1,0,4.91Zm-.53-4.39a1.47,1.47,0,0,0-1.08-.45,1.5,1.5,0,0,0-1.09.45A3.93,3.93,0,0,0,50,177a1.53,1.53,0,0,0,1.09.44,1.5,1.5,0,0,0,1.08-.44,3.86,3.86,0,0,0,0-3.87Z"/><path class="cls-1" d="M58.8,175.24a2,2,0,0,1-1.46.5H55.87v2.31h-.75v-6h2.21a2,2,0,0,1,1.51.53,2,2,0,0,1,0,2.62Zm-1.49-2.47H55.87v2.29h1.45c.8,0,1.2-.37,1.2-1.17S58.05,172.77,57.31,172.77Z"/><path class="cls-1" d="M60.81,178.05v-6h4v.69H61.56v1.81H64.4v.71H61.56v2.06H64.8v.69Zm1.36-6.34-.26-.4,1.43-1,.38.59Z"/><path class="cls-1" d="M70,178.05l-1.12-2.48H67.24v2.48h-.75v-6h2.34a2,2,0,0,1,1.51.53,1.67,1.67,0,0,1,.47,1.21,1.6,1.6,0,0,1-.45,1.18,1.88,1.88,0,0,1-.72.42l1.2,2.62Zm-1.18-5.27H67.24v2.09h1.59c.7,0,1.21-.29,1.21-1S69.53,172.78,68.83,172.78Z"/><path class="cls-1" d="M76,178.05l-.49-1.41H72.94l-.48,1.41H71.7l2.11-6h.87l2.11,6Zm-1.79-5.21-1,3.09h2.11Z"/><path class="cls-1" d="M79.33,172.78v5.27h-.75v-5.27H76.8v-.69h4.31v.69Z"/><path class="cls-1" d="M82.48,178.05v-6h4v.69H83.23v1.81h2.84v.71H83.23v2.06h3.24v.69Z"/><path class="cls-1" d="M90.17,178.16a2,2,0,0,1-2.18-2.3v-3.77h.75v3.79c0,1,.39,1.58,1.43,1.58s1.43-.63,1.43-1.58v-3.79h.75v3.77A2.05,2.05,0,0,1,90.17,178.16Z"/><path class="cls-1" d="M97.8,178.05l-1.12-2.48H95v2.48h-.75v-6h2.34a2,2,0,0,1,1.51.53,1.67,1.67,0,0,1,.47,1.21,1.6,1.6,0,0,1-.45,1.18,1.88,1.88,0,0,1-.72.42l1.2,2.62Zm-1.18-5.27H95v2.09h1.59c.7,0,1.21-.29,1.21-1S97.32,172.78,96.62,172.78Z"/><path class="cls-1" d="M106.31,175.24a2,2,0,0,1-1.47.5h-1.47v2.31h-.75v-6h2.22a2,2,0,0,1,1.51.53,2.06,2.06,0,0,1,0,2.62Zm-1.49-2.47h-1.45v2.29h1.46c.8,0,1.2-.37,1.2-1.17S105.56,172.77,104.82,172.77Z"/><path class="cls-1" d="M110.33,178.16a2,2,0,0,1-2.18-2.3v-3.77h.75v3.79c0,1,.39,1.58,1.43,1.58s1.43-.63,1.43-1.58v-3.79h.75v3.77A2,2,0,0,1,110.33,178.16Z"/><path class="cls-1" d="M118.34,177.5a2,2,0,0,1-1.49.55h-2.41v-6h2.38a2,2,0,0,1,1.46.54,1.43,1.43,0,0,1,.38,1,1.37,1.37,0,0,1-.85,1.32,1.49,1.49,0,0,1,1,1.44A1.53,1.53,0,0,1,118.34,177.5Zm-1.52-4.75h-1.65v1.88h1.68c.62,0,1.05-.28,1.05-.95A1,1,0,0,0,116.82,172.75Zm0,2.53h-1.69v2.08h1.68c.65,0,1.18-.32,1.18-1A1.07,1.07,0,0,0,116.86,175.28Z"/><path class="cls-1" d="M120.48,178.05v-6h.75v5.26h2.87v.7Z"/><path class="cls-1" d="M125.48,178.05v-6h.76v6Z"/><path class="cls-1" d="M131.91,177.53a2.33,2.33,0,0,1-3.21,0,4.39,4.39,0,0,1,0-4.91,2.31,2.31,0,0,1,1.61-.64,2.27,2.27,0,0,1,1.59.61,2,2,0,0,1,.59,1.36h-.77a1.34,1.34,0,0,0-.33-.83,1.45,1.45,0,0,0-1.08-.44,1.48,1.48,0,0,0-1.08.46,3.93,3.93,0,0,0,0,3.87,1.51,1.51,0,0,0,1.08.45,1.48,1.48,0,0,0,1.09-.45,1.4,1.4,0,0,0,.33-.86h.77A2,2,0,0,1,131.91,177.53Z"/><path class="cls-1" d="M140.1,177.45a2.22,2.22,0,0,1-1.57.6h-2.08v-6h2.08a2.27,2.27,0,0,1,1.57.6,3.13,3.13,0,0,1,.76,2.37A3.2,3.2,0,0,1,140.1,177.45Zm-.51-4.26a1.49,1.49,0,0,0-1.06-.41H137.2v4.58h1.33a1.49,1.49,0,0,0,1.06-.41,3.72,3.72,0,0,0,0-3.76Z"/><path class="cls-1" d="M142.57,178.05v-6h4v.69h-3.24v1.81h2.84v.71h-2.84v2.06h3.24v.69Z"/><path class="cls-1" d="M154.18,177.56a2.76,2.76,0,0,1-3.4,0,2,2,0,0,1-.64-1.43h.78a1.39,1.39,0,0,0,.42.94,1.69,1.69,0,0,0,1.15.37,1.59,1.59,0,0,0,1.11-.34.9.9,0,0,0,.3-.7c0-.47-.3-.85-1-1l-.94-.14c-.9-.14-1.59-.64-1.59-1.59a1.63,1.63,0,0,1,.52-1.17,2.19,2.19,0,0,1,1.56-.59,2.25,2.25,0,0,1,1.55.57,1.79,1.79,0,0,1,.57,1.28h-.78a1.24,1.24,0,0,0-.3-.75,1.56,1.56,0,0,0-2.11,0,1,1,0,0,0-.24.65c0,.54.45.78.89.84s.67.1,1,.15a1.71,1.71,0,0,1,1.66,1.69A1.54,1.54,0,0,1,154.18,177.56Z"/><path class="cls-1" d="M156.36,178.05v-6h4v.69h-3.24v1.81H160v.71h-2.84v2.06h3.24v.69Z"/><path class="cls-1" d="M165.56,178.05l-1.12-2.48h-1.65v2.48H162v-6h2.34a2,2,0,0,1,1.51.53,1.67,1.67,0,0,1,.47,1.21,1.6,1.6,0,0,1-.45,1.18,1.88,1.88,0,0,1-.72.42l1.2,2.62Zm-1.18-5.27h-1.59v2.09h1.59c.71,0,1.21-.29,1.21-1S165.09,172.78,164.38,172.78Z"/><path class="cls-1" d="M169.93,178.05h-.78l-2-6h.77l1.65,5,1.62-5h.76Z"/><path class="cls-1" d="M173.24,178.05v-6H174v6Z"/><path class="cls-1" d="M179.67,177.53a2.33,2.33,0,0,1-3.21,0,4.39,4.39,0,0,1,0-4.91,2.36,2.36,0,0,1,3.2,0,2,2,0,0,1,.59,1.36h-.77a1.34,1.34,0,0,0-.33-.83,1.45,1.45,0,0,0-1.08-.44,1.48,1.48,0,0,0-1.08.46,3.93,3.93,0,0,0,0,3.87,1.51,1.51,0,0,0,1.08.45,1.48,1.48,0,0,0,1.09-.45,1.4,1.4,0,0,0,.33-.86h.77A2.08,2.08,0,0,1,179.67,177.53Z"/><path class="cls-1" d="M181.86,178.05v-6h4v.69h-3.23v1.81h2.84v.71h-2.84v2.06h3.23v.69Z"/><path class="cls-1" d="M191.07,177.56a2.42,2.42,0,0,1-1.69.6,2.45,2.45,0,0,1-1.71-.57,2,2,0,0,1-.64-1.43h.78a1.39,1.39,0,0,0,.42.94,1.69,1.69,0,0,0,1.15.37,1.59,1.59,0,0,0,1.11-.34.9.9,0,0,0,.3-.7c0-.47-.3-.85-1-1l-.94-.14c-.9-.14-1.59-.64-1.59-1.59a1.63,1.63,0,0,1,.52-1.17,2.19,2.19,0,0,1,1.56-.59,2.25,2.25,0,0,1,1.55.57,1.76,1.76,0,0,1,.57,1.28h-.78a1.3,1.3,0,0,0-.29-.75,1.36,1.36,0,0,0-1.06-.41,1.32,1.32,0,0,0-1.06.41,1,1,0,0,0-.24.65c0,.54.45.78.89.84s.67.1,1,.15a1.71,1.71,0,0,1,1.66,1.69A1.54,1.54,0,0,1,191.07,177.56Z"/><path class="cls-1" d="M199.26,178.05l-2.93-4.79v4.79h-.72v-6h.84l2.93,4.81v-4.81h.72v6Z"/><path class="cls-1" d="M204.21,178.16a2.05,2.05,0,0,1-2.18-2.3v-3.77h.75v3.79c0,1,.4,1.58,1.43,1.58s1.43-.63,1.43-1.58v-3.79h.75v3.77A2,2,0,0,1,204.21,178.16Z"/><path class="cls-1" d="M213.33,178.05v-5L211.48,178h-.59L209,173v5.07h-.71v-6h1.07l1.8,4.85,1.79-4.85h1.06v6Z"/><path class="cls-1" d="M216.15,178.05v-6h4v.69H216.9v1.81h2.84v.71H216.9v2.06h3.24v.69Zm1.35-6.34-.25-.4,1.43-1,.38.59Z"/><path class="cls-1" d="M225.35,178.05l-1.13-2.48h-1.65v2.48h-.74v-6h2.33a2,2,0,0,1,1.52.53,1.71,1.71,0,0,1,.47,1.21,1.64,1.64,0,0,1-.45,1.18,1.88,1.88,0,0,1-.72.42l1.2,2.62Zm-1.19-5.27h-1.59v2.09h1.59c.71,0,1.22-.29,1.22-1S224.87,172.78,224.16,172.78Z"/><path class="cls-1" d="M227.81,178.05v-6h.77v6Z"/><path class="cls-1" d="M234.27,177.52l.54.7-.49.39-.55-.71a2.36,2.36,0,0,1-1.11.27,2.29,2.29,0,0,1-1.61-.64,4.35,4.35,0,0,1,0-4.91,2.35,2.35,0,0,1,3.22,0,4.33,4.33,0,0,1,0,4.9Zm-.53-4.38a1.47,1.47,0,0,0-1.08-.45,1.51,1.51,0,0,0-1.09.45,3.93,3.93,0,0,0,0,3.87,1.54,1.54,0,0,0,1.09.44,1.66,1.66,0,0,0,.66-.14l-.71-.91.49-.38.71.91a2.91,2.91,0,0,0,.45-1.86A2.74,2.74,0,0,0,233.74,173.14Z"/><path class="cls-1" d="M238.75,178.16a2,2,0,0,1-2.18-2.3v-3.77h.75v3.79c0,1,.39,1.58,1.43,1.58s1.43-.63,1.43-1.58v-3.79h.75v3.77A2,2,0,0,1,238.75,178.16Z"/><path class="cls-1" d="M242.86,178.05v-6h4v.69h-3.24v1.81h2.84v.71h-2.84v2.06h3.24v.69Z"/><path class="cls-1" d="M252.07,177.56a2.4,2.4,0,0,1-1.69.6,2.48,2.48,0,0,1-1.71-.57,2,2,0,0,1-.64-1.43h.79a1.34,1.34,0,0,0,.42.94,1.68,1.68,0,0,0,1.14.37,1.57,1.57,0,0,0,1.11-.34.87.87,0,0,0,.3-.7c0-.47-.29-.85-1-1l-.94-.14c-.89-.14-1.59-.64-1.59-1.59a1.63,1.63,0,0,1,.52-1.17,2.2,2.2,0,0,1,1.57-.59,2.25,2.25,0,0,1,1.55.57,1.79,1.79,0,0,1,.57,1.28h-.79a1.17,1.17,0,0,0-.29-.75,1.35,1.35,0,0,0-1-.41,1.32,1.32,0,0,0-1.06.41,1,1,0,0,0-.25.65c0,.54.45.78.9.84l1,.15a1.71,1.71,0,0,1,1.66,1.69A1.52,1.52,0,0,1,252.07,177.56Z"/><path class="cls-1" d="M75,158.93c-2.68,2.63-6.85,3.89-11,3.89-4.71,0-8.5-1.31-11.13-3.73a12.9,12.9,0,0,1-4.16-9.32h5.09a8.86,8.86,0,0,0,2.75,6.14c1.75,1.7,4.71,2.41,7.45,2.41,3,0,5.48-.6,7.24-2.24a5.73,5.73,0,0,0,2-4.55c0-3-1.92-5.54-6.52-6.25l-6.14-.94c-5.81-.87-10.36-4.11-10.36-10.3a10.69,10.69,0,0,1,3.4-7.68,14.44,14.44,0,0,1,10.19-3.84,14.61,14.61,0,0,1,10.09,3.73,11.67,11.67,0,0,1,3.73,8.33h-5.1a8.09,8.09,0,0,0-1.92-4.87A8.78,8.78,0,0,0,63.69,127a8.78,8.78,0,0,0-6.91,2.69,6.15,6.15,0,0,0-1.59,4.22c0,3.51,2.91,5.1,5.81,5.48,2.19.27,4.33.66,6.47,1,6.47.93,10.8,4.88,10.8,11A10.14,10.14,0,0,1,75,158.93Z"/><path class="cls-1" d="M86.49,162.11V123.24h5v38.87Z"/><path class="cls-1" d="M125.69,158.71a15.27,15.27,0,0,1-21,0c-4.22-4.11-4.88-9.82-4.88-16s.66-11.9,4.88-16a15.05,15.05,0,0,1,10.53-4.17,14.81,14.81,0,0,1,10.36,4,13.27,13.27,0,0,1,3.84,8.88h-5a8.44,8.44,0,0,0-2.13-5.43,9.43,9.43,0,0,0-7-2.85,9.85,9.85,0,0,0-7.07,3c-3.18,3.29-3.29,8.55-3.29,12.61s.11,9.32,3.29,12.61a9.85,9.85,0,0,0,7.07,3,9.6,9.6,0,0,0,7.07-3,8.94,8.94,0,0,0,2.14-5.59h5A13.54,13.54,0,0,1,125.69,158.71Z"/><path class="cls-1" d="M147.55,127.79v34.32h-4.94V127.79H131v-4.55h28.07v4.55Z"/><path class="cls-1" d="M165.3,162.11V123.24h5v38.87Z"/><path class="cls-1" d="M204.34,162.11l-3.18-9.21H184.27l-3.12,9.21h-4.94l13.71-38.87h5.7l13.76,38.87Zm-11.68-34-6.85,20.17h13.76Z"/><path class="cls-1" d="M247.92,162.11V129.32l-12.07,32.24H232L220,129.05v33.06h-4.67V123.24h7l11.74,31.63,11.67-31.63h6.86v38.87Z"/></g></g></svg>