<svg xmlns="http://www.w3.org/2000/svg" viewBox="0 0 28 22"><defs><style>.cls-1{fill:#fff;}</style></defs><title>twitter</title><g id="Calque_2" data-name="Calque 2"><g id="Twitter_1" data-name="Twitter 1"><path class="cls-1" d="M28,2a9.3,9.3,0,0,1-3,1c.9-.36,1.69-1.83,2-3a11.47,11.47,0,0,1-3.3,1.32,6,6,0,0,0-7.94.44A6.25,6.25,0,0,0,14,6.5C8.55,6.17,5.28,2.85,3,0,1,3.34,2.46,7.1,4,8A4,4,0,0,1,1,7c0,3.81,3.87,5.88,5,6-.66.56-1.79.37-3,0a6.85,6.85,0,0,0,6,4c-1.92,1.72-5.88,2.86-9,2.5,14.22,8,27.09-4.87,26-14.5C26.73,4.52,27.23,3.22,28,2Z"/></g></g></svg>