<svg xmlns="http://www.w3.org/2000/svg" viewBox="0 0 31 25"><defs><style>.cls-1{fill:none;stroke:#fff;stroke-linecap:round;stroke-linejoin:round;stroke-width:1px;}</style></defs><title>TWITTER</title><g id="Calque_2" data-name="Calque 2"><g id="Twitter_1" data-name="Twitter 1"><path class="cls-1" d="M29.5,3.5a9.3,9.3,0,0,1-3,1c.9-.36,1.69-1.83,2-3a11.47,11.47,0,0,1-3.3,1.32,6,6,0,0,0-7.94.44A6.25,6.25,0,0,0,15.5,8c-5.45-.33-8.72-3.65-11-6.5-2,3.34-.54,7.1,1,8a4,4,0,0,1-3-1c0,3.81,3.87,5.88,5,6-.66.56-1.79.37-3,0a6.85,6.85,0,0,0,6,4c-1.92,1.72-5.88,2.86-9,2.5,14.22,8,27.09-4.87,26-14.5C28.23,6,28.73,4.72,29.5,3.5Z"/></g></g></svg>