<svg xmlns="http://www.w3.org/2000/svg" viewBox="0 0 32 24"><defs><style>.cls-1{fill:none;stroke:#fff;stroke-linecap:round;stroke-linejoin:round;stroke-width:1px;}</style></defs><title>YOUTUBE</title><g id="Calque_2" data-name="Calque 2"><g id="Youtube_1" data-name="Youtube 1"><path class="cls-1" d="M27.07,21.74l-6.61.57a53.14,53.14,0,0,1-8.92,0l-6.61-.57A3.76,3.76,0,0,1,1.5,18V6A3.75,3.75,0,0,1,4.93,2.26l6.61-.57a53.14,53.14,0,0,1,8.92,0l6.61.57A3.75,3.75,0,0,1,30.5,6V18A3.76,3.76,0,0,1,27.07,21.74Z"/><polygon class="cls-1" points="12.5 6.5 12.5 16.5 21.5 11.5 12.5 6.5"/></g></g></svg>