<?xml version="1.0" encoding="utf-8"?>
<!-- Generator: Adobe Illustrator 21.0.0, SVG Export Plug-In . SVG Version: 6.00 Build 0)  -->
<svg version="1.1" id="Calque_1" xmlns="http://www.w3.org/2000/svg" xmlns:xlink="http://www.w3.org/1999/xlink" x="0px" y="0px"
	 viewBox="0 0 85 85" style="enable-background:new 0 0 85 85;" xml:space="preserve">
<style type="text/css">
	.st0{fill:none;stroke:#010101;stroke-width:2;stroke-linecap:round;stroke-linejoin:round;}
</style>
<g id="Calque_2_1_">
	<g id="Calque_1-2">
		<rect x="21" y="39.6" class="st0" width="7.8" height="23.5"/>
		<path class="st0" d="M67.9,67H17.1c-1.4,0-2,0.6-2,2v2h54.7v-2C69.9,67.5,69.4,67,67.9,67z"/>
		<path class="st0" d="M30.8,67H19.1v-2c0-1.1,0.9-2,2-2c0,0,0,0,0,0h7.8c1.1,0,2,0.9,2,2L30.8,67z"/>
		<rect x="38.6" y="39.6" class="st0" width="7.8" height="23.5"/>
		<path class="st0" d="M48.4,67H36.7v-2c0-1.1,0.7-2,1-2h8.8c1.9,0,2,0.9,2,2V67z"/>
		<rect x="56.2" y="39.6" class="st0" width="7.8" height="23.5"/>
		<path class="st0" d="M66,67H54.2v-2c0-1.1,0.9-2,2-2H64c1.1,0,2,0.9,2,2L66,67z"/>
		<path class="st0" d="M54.3,35.7H66v2c0,1.1-0.9,2-2,2h-7.9c-1.1,0-2-0.9-2-2V35.7z"/>
		<path class="st0" d="M36.7,35.7h11.8v2c0,1.1-0.9,2-2,2h-7.9c-1.1,0-2-0.9-2-2V35.7z"/>
		<path class="st0" d="M19.1,35.7h11.8v2c0,1.1-0.9,2-2,2H22c-1.1,0-2.9-0.9-2.9-2V35.7z"/>
		<polygon class="st0" points="42.5,14.2 15.2,31.8 69.9,31.8 		"/>
		<rect x="17.1" y="31.8" class="st0" width="50.8" height="3.9"/>
		<polygon class="st0" points="42.5,22 34.7,27.9 50.3,27.9 		"/>
	</g>
</g>
</svg>
