<?xml version="1.0" encoding="utf-8"?>
<!-- Generator: Adobe Illustrator 21.0.0, SVG Export Plug-In . SVG Version: 6.00 Build 0)  -->
<svg version="1.1" id="Calque_1" xmlns="http://www.w3.org/2000/svg" xmlns:xlink="http://www.w3.org/1999/xlink" x="0px" y="0px"
	 viewBox="0 0 85 85" style="enable-background:new 0 0 85 85;" xml:space="preserve">
<style type="text/css">
	.st0{fill:none;stroke:#010101;stroke-width:2.5;stroke-linecap:round;stroke-linejoin:round;}
</style>
<g id="Calque_2_2_">
	<g id="Calque_1-2_1_">
		<path class="st0" d="M57.7,28.8L57.7,28.8c7.8,7.9,5.8,11.6-2.9,19.6L21.5,69.9c-1.7,1.1-4.4,1.4-5.9,0l0,0
			c-1.4-1.4-1.1-4.2,0-5.9l21.5-33.2C42.8,21,51.9,23.1,57.7,28.8z"/>
		<path class="st0" d="M36.1,32.8c2.2,0,6,1.4,6.8,4.9"/>
		<path class="st0" d="M43,45.5c2.2,0,7,1.4,7.8,4.9"/>
		<path class="st0" d="M29.3,43.6c1.8,0,5.2,0.4,5.9,3.9"/>
		<path class="st0" d="M31.3,55.3c2.4-0.2,4.6,1.5,4.9,3.9"/>
		<path class="st0" d="M19.5,59.2c1.4,0,3.3,0.2,3.9,2"/>
		<path class="st0" d="M54.7,25.9c0-4-0.7-8-2-11.7c3.9,4.5,7.4,7.2,7.8,9.8c1.3-1.5,8.5-5.6,7.8-9.8c1.8,5.2-1.1,14.9-3.9,15.6
			c3.1,1.8,3.9,5.4,5.9,7.8c-5.4-1.7-5.3-5.3-8.8-3.9"/>
	</g>
</g>
</svg>
