<svg xmlns="http://www.w3.org/2000/svg" viewBox="0 0 41.79 42.49"><defs><style>.cls-1{fill:none;stroke:#010101;stroke-linecap:round;stroke-linejoin:round;stroke-width:1.5px;}</style></defs><title>AGRICULTURE_NOIR</title><g id="Calque_2" data-name="Calque 2"><g id="Calque_1-2" data-name="Calque 1"><path class="cls-1" d="M31.71,11.47h0c5.59,5.63,4.15,8.3-2.09,14L5.88,40.8c-1.19.81-3.17,1-4.19,0h0c-1-1-.81-3,0-4.19L17.05,12.87C21.07,5.84,27.63,7.39,31.71,11.47Z"/><path class="cls-1" d="M16.35,14.27c1.54,0,4.29,1,4.89,3.49"/><path class="cls-1" d="M21.24,23.34c1.54,0,5,1,5.59,3.49"/><path class="cls-1" d="M11.47,22c1.28,0,3.68.26,4.19,2.79"/><path class="cls-1" d="M12.86,30.33a3.19,3.19,0,0,1,3.49,2.79"/><path class="cls-1" d="M4.48,33.12c1,0,2.39.13,2.8,1.4"/><path class="cls-1" d="M29.62,9.38A25.35,25.35,0,0,0,28.22,1C31,4.19,33.51,6.17,33.81,8c.95-1.1,6.1-4,5.59-7,1.32,3.74-.82,10.66-2.8,11.17,2.24,1.25,2.8,3.83,4.19,5.59C36.9,16.58,37,13.94,34.51,15"/></g></g></svg>