<?xml version="1.0" encoding="utf-8"?>
<!-- Generator: Adobe Illustrator 21.0.0, SVG Export Plug-In . SVG Version: 6.00 Build 0)  -->
<svg version="1.1" id="Calque_1" xmlns="http://www.w3.org/2000/svg" xmlns:xlink="http://www.w3.org/1999/xlink" x="0px" y="0px"
	 viewBox="0 0 85 85" style="enable-background:new 0 0 85 85;" xml:space="preserve">
<style type="text/css">
	.st0{fill:none;stroke:#010101;stroke-width:2.5;stroke-linecap:round;stroke-linejoin:round;}
</style>
<g id="Calque_2_4_">
	<g id="Calque_1-2_3_">
		<line class="st0" x1="54.2" y1="70.8" x2="66" y2="70.8"/>
		<line class="st0" x1="19.1" y1="70.8" x2="30.8" y2="70.8"/>
		<line class="st0" x1="34.7" y1="33.7" x2="50.3" y2="33.7"/>
		<polygon class="st0" points="42.5,16.1 42.5,16.1 46.4,22 38.6,22 		"/>
		<line class="st0" x1="42.5" y1="16.6" x2="42.5" y2="14.2"/>
		<polygon class="st0" points="38.6,53.3 40.6,45.4 44.5,45.4 46.4,53.3 		"/>
		<line class="st0" x1="28.8" y1="53.3" x2="58.2" y2="53.3"/>
		<path class="st0" d="M30.8,70.8c0.2-6.5,5.6-11.5,12.1-11.3c6.2,0.2,11.1,5.2,11.3,11.3"/>
		<path class="st0" d="M46.4,22C46.3,40.2,53.3,57.7,66,70.9"/>
		<path class="st0" d="M38.6,22c0.1,18.2-6.9,35.7-19.5,48.8"/>
	</g>
</g>
</svg>
