<svg
    xmlns="http://www.w3.org/2000/svg" viewBox="0 0 38.46 46.06">
    <defs>
        <style>.cls-1{fill:none;stroke:#010101;stroke-linecap:round;stroke-linejoin:round;stroke-width:1.25px;}</style>
    </defs>
    <title>EIFFEL NOIR</title>
    <g id="Calque_2" data-name="Calque 2">
        <g id="Calque_1-2" data-name="Calque 1">
            <line class="cls-1" x1="28.35" y1="45.06" x2="37.46" y2="45.06"/>
            <line class="cls-1" x1="1" y1="45.06" x2="10.12" y2="45.06"/>
            <line class="cls-1" x1="13.15" y1="16.19" x2="25.31" y2="16.19"/>
            <polygon class="cls-1" points="19.23 2.52 19.23 2.52 22.27 7.08 16.19 7.08 19.23 2.52"/>
            <line class="cls-1" x1="19.23" y1="2.92" x2="19.23" y2="1"/>
            <polygon class="cls-1" points="16.19 31.39 17.71 25.31 20.75 25.31 22.27 31.39 16.19 31.39"/>
            <line class="cls-1" x1="8.6" y1="31.39" x2="31.39" y2="31.39"/>
            <path class="cls-1" d="M10.12,45.06a9.12,9.12,0,0,1,18.23,0"/>
            <path class="cls-1" d="M22.27,7.08a54.36,54.36,0,0,0,15.19,38"/>
            <path class="cls-1" d="M16.19,7.08A54.36,54.36,0,0,1,1,45.06"/>
        </g>
    </g>
</svg>