<svg xmlns="http://www.w3.org/2000/svg" viewBox="0 0 33.64 43.71"><defs><style>.cls-1{fill:none;stroke:#010101;stroke-linecap:round;stroke-linejoin:round;stroke-width:1.25px;}</style></defs><title>EURO NOIR</title><g id="Calque_2" data-name="Calque 2"><g id="Calque_1-2" data-name="Calque 1"><path class="cls-1" d="M20.42,12.51H13.23S1,24.78,1,29.76c0,7,6.81,13,15.82,13s15.82-5.93,15.82-12.95C32.64,24.78,20.42,12.51,20.42,12.51Z"/><line class="cls-1" x1="9.63" y1="12.51" x2="24.01" y2="12.51"/><path class="cls-1" d="M13.23,12.51S3.87,4.17,6,1.72C7.38.2,12.51,5.31,12.51,5.31S15.54,1,16.82,1s4.32,4.31,4.32,4.31S26.27.2,27.61,1.72c2.16,2.45-7.19,10.79-7.19,10.79Z"/><path class="cls-1" d="M20.06,24.84a2.87,2.87,0,0,0-3-2.7c-1.79,0-3.46,1.1-3.46,2.59v6c0,1.49,1.67,2.59,3.46,2.59,1.29,0,3-.86,3-2.59"/><line class="cls-1" x1="12.72" y1="26.46" x2="17.9" y2="26.46"/><line class="cls-1" x1="12.51" y1="29.05" x2="17.9" y2="29.05"/></g></g></svg>