<svg xmlns="http://www.w3.org/2000/svg" viewBox="0 0 16 30"><defs><style>.cls-1{fill:none;stroke:#000;stroke-linecap:round;stroke-linejoin:round;}</style></defs><title>EDUCATION 3</title><g id="Calque_2" data-name="Calque 2"><g id="Pen_Holder" data-name="Pen Holder"><path class="cls-1" d="M.5,14.5h15l-1,13.85a1.25,1.25,0,0,1-1.25,1.15h-10A1.25,1.25,0,0,1,2,28.35Z"/><line class="cls-1" x1="2" y1="26.5" x2="11.5" y2="26.5"/><polyline class="cls-1" points="2 14.25 1.5 8.5 2.5 4.5 4.5 8.5 5.13 14.25"/><line class="cls-1" x1="6.5" y1="4.5" x2="9.5" y2="4.5"/><polyline class="cls-1" points="13.5 14.25 13.5 2.5 11.5 2.5 11.5 14.5"/><line class="cls-1" x1="11.5" y1="8.5" x2="13.5" y2="8.5"/><line class="cls-1" x1="12.5" y1="2.5" x2="12.5" y2="0.5"/><line class="cls-1" x1="2.5" y1="4.5" x2="2" y2="2.5"/><path class="cls-1" d="M6.5,14.5V2A1.5,1.5,0,0,1,8,.5H8A1.5,1.5,0,0,1,9.5,2V14"/></g></g></svg>