<?xml version="1.0" encoding="utf-8"?>
<!-- Generator: Adobe Illustrator 21.0.0, SVG Export Plug-In . SVG Version: 6.00 Build 0)  -->
<svg version="1.1" id="Calque_1" xmlns="http://www.w3.org/2000/svg" xmlns:xlink="http://www.w3.org/1999/xlink" x="0px" y="0px"
	 viewBox="0 0 85 85" style="enable-background:new 0 0 85 85;" xml:space="preserve">
<style type="text/css">
	.st0{fill:none;stroke:#000000;stroke-width:2.5;stroke-linecap:round;stroke-linejoin:round;}
</style>
<g id="Calque_2">
	<g id="Pen_Holder">
		<path class="st0" d="M27.9,41.5h29.3l-2,27.1c-0.1,1.3-1.2,2.3-2.4,2.2H33.2c-1.3,0-2.3-1-2.4-2.2L27.9,41.5z"/>
		<line class="st0" x1="30.8" y1="65" x2="49.4" y2="65"/>
		<polyline class="st0" points="30.8,41.1 29.8,29.8 31.8,22 35.7,29.8 36.9,41.1 		"/>
		<line class="st0" x1="39.6" y1="22" x2="45.5" y2="22"/>
		<polyline class="st0" points="53.3,41.1 53.3,18.1 49.4,18.1 49.4,41.5 		"/>
		<line class="st0" x1="49.4" y1="29.8" x2="53.3" y2="29.8"/>
		<line class="st0" x1="51.3" y1="18.1" x2="51.3" y2="14.2"/>
		<line class="st0" x1="31.8" y1="22" x2="30.8" y2="18.1"/>
		<path class="st0" d="M39.6,41.5V17.1c0-1.6,1.3-2.9,2.9-2.9l0,0c1.6,0,2.9,1.3,2.9,2.9v23.5"/>
	</g>
</g>
</svg>
