<svg xmlns="http://www.w3.org/2000/svg" width="1440" height="900"><path d="M778,475L908,451L808,398Z" fill="#fd8038" stroke="#fd8038" stroke-width="1.51"/><path d="M908,451L839,381L808,398Z" fill="#fe8238" stroke="#fe8238" stroke-width="1.51"/><path d="M956,371L892,326L839,381Z" fill="#fe8339" stroke="#fe8339" stroke-width="1.51"/><path d="M729,294L710,328L808,398Z" fill="#fe9741" stroke="#fe9741" stroke-width="1.51"/><path d="M908,451L956,371L839,381Z" fill="#fe7d37" stroke="#fe7d37" stroke-width="1.51"/><path d="M778,475L958,543L908,451Z" fill="#fd7133" stroke="#fd7133" stroke-width="1.51"/><path d="M908,451L1025,451L956,371Z" fill="#fc7234" stroke="#fc7234" stroke-width="1.51"/><path d="M778,475L862,641L958,543Z" fill="#fd662f" stroke="#fd662f" stroke-width="1.51"/><path d="M808,398L686,464L778,475Z" fill="#fd893a" stroke="#fd893a" stroke-width="1.51"/><path d="M710,328L686,464L808,398Z" fill="#fe923e" stroke="#fe923e" stroke-width="1.51"/><path d="M703,602L759,608L778,475Z" fill="#fd7534" stroke="#fd7534" stroke-width="1.51"/><path d="M862,641L970,586L958,543Z" fill="#fc542b" stroke="#fc542b" stroke-width="1.51"/><path d="M958,543L1025,451L908,451Z" fill="#fc6830" stroke="#fc6830" stroke-width="1.51"/><path d="M729,294L808,398L839,381Z" fill="#fe903e" stroke="#fe903e" stroke-width="1.51"/><path d="M1047,625L1025,451L958,543Z" fill="#f9572b" stroke="#f9572b" stroke-width="1.51"/><path d="M759,608L862,641L778,475Z" fill="#fd6b31" stroke="#fd6b31" stroke-width="1.51"/><path d="M892,326L729,294L839,381Z" fill="#fe903e" stroke="#fe903e" stroke-width="1.51"/><path d="M759,608L740,694L862,641Z" fill="#f9612e" stroke="#f9612e" stroke-width="1.51"/><path d="M686,464L703,602L778,475Z" fill="#fd8138" stroke="#fd8138" stroke-width="1.51"/><path d="M710,328L644,404L686,464Z" fill="#fe9740" stroke="#fe9740" stroke-width="1.51"/><path d="M686,464L596,526L703,602Z" fill="#fe8339" stroke="#fe8339" stroke-width="1.51"/><path d="M550,372L644,404L600,257Z" fill="#fea446" stroke="#fea446" stroke-width="1.51"/><path d="M892,326L826,180L729,294Z" fill="#ff9944" stroke="#ff9944" stroke-width="1.51"/><path d="M956,371L992,257L892,326Z" fill="#ff8239" stroke="#ff8239" stroke-width="1.51"/><path d="M1060,327L992,257L956,371Z" fill="#fc7e37" stroke="#fc7e37" stroke-width="1.51"/><path d="M703,602L687,652L759,608Z" fill="#fc6f32" stroke="#fc6f32" stroke-width="1.51"/><path d="M596,526L687,652L703,602Z" fill="#fe7735" stroke="#fe7735" stroke-width="1.51"/><path d="M1025,451L1060,327L956,371Z" fill="#fb7534" stroke="#fb7534" stroke-width="1.51"/><path d="M644,404L596,526L686,464Z" fill="#fe913d" stroke="#fe913d" stroke-width="1.51"/><path d="M687,652L740,694L759,608Z" fill="#f96a30" stroke="#f96a30" stroke-width="1.51"/><path d="M1047,625L1105,429L1025,451Z" fill="#f75d2c" stroke="#f75d2c" stroke-width="1.51"/><path d="M1025,451L1105,429L1060,327Z" fill="#f86e31" stroke="#f86e31" stroke-width="1.51"/><path d="M862,641L967,687L970,586Z" fill="#f94c28" stroke="#f94c28" stroke-width="1.51"/><path d="M838,738L967,687L862,641Z" fill="#f64d28" stroke="#f64d28" stroke-width="1.51"/><path d="M1047,625L958,543L970,586Z" fill="#fa4e29" stroke="#fa4e29" stroke-width="1.51"/><path d="M967,687L1047,625L970,586Z" fill="#f74527" stroke="#f74527" stroke-width="1.51"/><path d="M992,257L826,180L892,326Z" fill="#ff9142" stroke="#ff9142" stroke-width="1.51"/><path d="M740,694L838,738L862,641Z" fill="#f5582b" stroke="#f5582b" stroke-width="1.51"/><path d="M644,404L550,372L596,526Z" fill="#fe9941" stroke="#fe9941" stroke-width="1.51"/><path d="M600,257L644,404L710,328Z" fill="#fea245" stroke="#fea245" stroke-width="1.51"/><path d="M600,257L710,328L729,294Z" fill="#fea446" stroke="#fea446" stroke-width="1.51"/><path d="M654,205L600,257L729,294Z" fill="#ffab4c" stroke="#ffab4c" stroke-width="1.51"/><path d="M733,149L654,205L729,294Z" fill="#ffac50" stroke="#ffac50" stroke-width="1.51"/><path d="M1060,327L1079,239L992,257Z" fill="#fa813a" stroke="#fa813a" stroke-width="1.51"/><path d="M992,257L1020,170L826,180Z" fill="#ff9247" stroke="#ff9247" stroke-width="1.51"/><path d="M1155,366L1079,239L1060,327Z" fill="#f77835" stroke="#f77835" stroke-width="1.51"/><path d="M766,63L733,149L826,180Z" fill="#ffae59" stroke="#ffae59" stroke-width="1.51"/><path d="M826,180L733,149L729,294Z" fill="#ffa74e" stroke="#ffa74e" stroke-width="1.51"/><path d="M1105,429L1155,366L1060,327Z" fill="#f66f31" stroke="#f66f31" stroke-width="1.51"/><path d="M1211,536L1155,366L1105,429Z" fill="#f2622c" stroke="#f2622c" stroke-width="1.51"/><path d="M740,694L723,766L838,738Z" fill="#f25b2a" stroke="#f25b2a" stroke-width="1.51"/><path d="M687,652L723,766L740,694Z" fill="#f5652d" stroke="#f5652d" stroke-width="1.51"/><path d="M555,722L723,766L687,652Z" fill="#f56a2f" stroke="#f56a2f" stroke-width="1.51"/><path d="M596,526L527,563L687,652Z" fill="#fe7f38" stroke="#fe7f38" stroke-width="1.51"/><path d="M436,452L527,563L596,526Z" fill="#fe933f" stroke="#fe933f" stroke-width="1.51"/><path d="M838,738L1020,841L967,687Z" fill="#ef3923" stroke="#ef3923" stroke-width="1.51"/><path d="M723,766L822,791L838,738Z" fill="#ef5329" stroke="#ef5329" stroke-width="1.51"/><path d="M1079,239L1020,170L992,257Z" fill="#fc8a42" stroke="#fc8a42" stroke-width="1.51"/><path d="M967,687L1066,707L1047,625Z" fill="#f23c24" stroke="#f23c24" stroke-width="1.51"/><path d="M1047,625L1211,536L1105,429Z" fill="#f35128" stroke="#f35128" stroke-width="1.51"/><path d="M1020,841L1066,707L967,687Z" fill="#ec3221" stroke="#ec3221" stroke-width="1.51"/><path d="M600,257L507,319L550,372Z" fill="#feac49" stroke="#feac49" stroke-width="1.51"/><path d="M550,372L436,452L596,526Z" fill="#fe9d43" stroke="#fe9d43" stroke-width="1.51"/><path d="M527,235L507,319L600,257Z" fill="#feb24e" stroke="#feb24e" stroke-width="1.51"/><path d="M1020,170L884,80L826,180Z" fill="#ff9f51" stroke="#ff9f51" stroke-width="1.51"/><path d="M1204,626L1211,536L1047,625Z" fill="#f13c24" stroke="#f13c24" stroke-width="1.51"/><path d="M611,131L654,205L642,104Z" fill="#ffba5c" stroke="#ffba5c" stroke-width="1.51"/><path d="M611,131L600,257L654,205Z" fill="#ffb555" stroke="#ffb555" stroke-width="1.51"/><path d="M611,131L527,235L600,257Z" fill="#ffb755" stroke="#ffb755" stroke-width="1.51"/><path d="M1066,707L1171,664L1047,625Z" fill="#ef3622" stroke="#ef3622" stroke-width="1.51"/><path d="M527,563L555,722L687,652Z" fill="#fb7835" stroke="#fb7835" stroke-width="1.51"/><path d="M1079,239L1128,186L1020,170Z" fill="#fb8a43" stroke="#fb8a43" stroke-width="1.51"/><path d="M1020,170L975,63L884,80Z" fill="#ff9c54" stroke="#ff9c54" stroke-width="1.51"/><path d="M1207,289L1128,186L1079,239Z" fill="#f7803c" stroke="#f7803c" stroke-width="1.51"/><path d="M1207,289L1079,239L1155,366Z" fill="#f57734" stroke="#f57734" stroke-width="1.51"/><path d="M642,104L654,205L733,149Z" fill="#ffb75a" stroke="#ffb75a" stroke-width="1.51"/><path d="M884,80L766,63L826,180Z" fill="#ffaa59" stroke="#ffaa59" stroke-width="1.51"/><path d="M1171,664L1204,626L1047,625Z" fill="#ef3622" stroke="#ef3622" stroke-width="1.51"/><path d="M1230,300L1207,289L1155,366Z" fill="#f17132" stroke="#f17132" stroke-width="1.51"/><path d="M723,766L682,825L822,791Z" fill="#eb5a2c" stroke="#eb5a2c" stroke-width="1.51"/><path d="M555,722L682,825L723,766Z" fill="#ef642e" stroke="#ef642e" stroke-width="1.51"/><path d="M766,63L642,104L733,149Z" fill="#ffb75f" stroke="#ffb75f" stroke-width="1.51"/><path d="M439,355L550,372L507,319Z" fill="#feac49" stroke="#feac49" stroke-width="1.51"/><path d="M439,355L436,452L550,372Z" fill="#fea848" stroke="#fea848" stroke-width="1.51"/><path d="M527,563L427,623L555,722Z" fill="#fc8038" stroke="#fc8038" stroke-width="1.51"/><path d="M1299,419L1230,300L1155,366Z" fill="#ee6a31" stroke="#ee6a31" stroke-width="1.51"/><path d="M1204,626L1236,562L1211,536Z" fill="#ed3f25" stroke="#ed3f25" stroke-width="1.51"/><path d="M1053,59L975,63L1020,170Z" fill="#ff9953" stroke="#ff9953" stroke-width="1.51"/><path d="M884,80L902,-13L766,63Z" fill="#ffac61" stroke="#ffac61" stroke-width="1.51"/><path d="M376,268L439,355L507,319Z" fill="#feb550" stroke="#feb550" stroke-width="1.51"/><path d="M1299,419L1155,366L1211,536Z" fill="#ed5e2d" stroke="#ed5e2d" stroke-width="1.51"/><path d="M1207,289L1229,199L1128,186Z" fill="#f47f3d" stroke="#f47f3d" stroke-width="1.51"/><path d="M1066,707L1152,768L1171,664Z" fill="#e92a1f" stroke="#e92a1f" stroke-width="1.51"/><path d="M1171,664L1263,674L1204,626Z" fill="#e72e21" stroke="#e72e21" stroke-width="1.51"/><path d="M822,791L1020,841L838,738Z" fill="#eb4126" stroke="#eb4126" stroke-width="1.51"/><path d="M998,892L1020,841L822,791Z" fill="#e43427" stroke="#e43427" stroke-width="1.51"/><path d="M975,63L929,34L884,80Z" fill="#ffa25c" stroke="#ffa25c" stroke-width="1.51"/><path d="M1020,841L1058,839L1066,707Z" fill="#e42a21" stroke="#e42a21" stroke-width="1.51"/><path d="M1058,839L1152,768L1066,707Z" fill="#e5261f" stroke="#e5261f" stroke-width="1.51"/><path d="M1346,661L1287,533L1236,562Z" fill="#e53927" stroke="#e53927" stroke-width="1.51"/><path d="M682,825L802,900L822,791Z" fill="#e6532d" stroke="#e6532d" stroke-width="1.51"/><path d="M1020,841L1024,909L1058,839Z" fill="#dc2824" stroke="#dc2824" stroke-width="1.51"/><path d="M555,722L550,840L682,825Z" fill="#ed6931" stroke="#ed6931" stroke-width="1.51"/><path d="M436,452L427,623L527,563Z" fill="#ff9240" stroke="#ff9240" stroke-width="1.51"/><path d="M409,627L427,623L436,452Z" fill="#ff9143" stroke="#ff9143" stroke-width="1.51"/><path d="M975,63L1044,9L929,34Z" fill="#ff9f5d" stroke="#ff9f5d" stroke-width="1.51"/><path d="M1128,186L1053,59L1020,170Z" fill="#fc924c" stroke="#fc924c" stroke-width="1.51"/><path d="M1190,100L1053,59L1128,186Z" fill="#fa904d" stroke="#fa904d" stroke-width="1.51"/><path d="M1236,562L1287,533L1211,536Z" fill="#ea4728" stroke="#ea4728" stroke-width="1.51"/><path d="M1263,674L1236,562L1204,626Z" fill="#e93323" stroke="#e93323" stroke-width="1.51"/><path d="M1287,533L1299,419L1211,536Z" fill="#e9522b" stroke="#e9522b" stroke-width="1.51"/><path d="M862,923L998,892L822,791Z" fill="#e13d29" stroke="#e13d29" stroke-width="1.51"/><path d="M1154,914L1272,760L1152,768Z" fill="#d9151f" stroke="#d9151f" stroke-width="1.51"/><path d="M1230,300L1229,199L1207,289Z" fill="#f07839" stroke="#f07839" stroke-width="1.51"/><path d="M1403,203L1229,199L1230,300Z" fill="#eb7a3e" stroke="#eb7a3e" stroke-width="1.51"/><path d="M427,623L442,710L555,722Z" fill="#f87d37" stroke="#f87d37" stroke-width="1.51"/><path d="M329,451L409,627L436,452Z" fill="#ff9f4a" stroke="#ff9f4a" stroke-width="1.51"/><path d="M802,900L862,923L822,791Z" fill="#e1492c" stroke="#e1492c" stroke-width="1.51"/><path d="M553,-8L515,117L611,131Z" fill="#ffc568" stroke="#ffc568" stroke-width="1.51"/><path d="M611,131L515,117L527,235Z" fill="#ffc05d" stroke="#ffc05d" stroke-width="1.51"/><path d="M527,235L395,231L507,319Z" fill="#feb953" stroke="#feb953" stroke-width="1.51"/><path d="M553,-8L611,131L642,104Z" fill="#ffc267" stroke="#ffc267" stroke-width="1.51"/><path d="M929,34L902,-13L884,80Z" fill="#ffa760" stroke="#ffa760" stroke-width="1.51"/><path d="M766,63L684,-36L642,104Z" fill="#ffbd68" stroke="#ffbd68" stroke-width="1.51"/><path d="M1044,9L902,-13L929,34Z" fill="#ffa261" stroke="#ffa261" stroke-width="1.51"/><path d="M409,627L442,710L427,623Z" fill="#fc863e" stroke="#fc863e" stroke-width="1.51"/><path d="M682,825L634,930L802,900Z" fill="#e05931" stroke="#e05931" stroke-width="1.51"/><path d="M1272,760L1263,674L1171,664Z" fill="#e22420" stroke="#e22420" stroke-width="1.51"/><path d="M477,827L550,840L555,722Z" fill="#ed6f34" stroke="#ed6f34" stroke-width="1.51"/><path d="M802,900L873,1016L862,923Z" fill="#d4422d" stroke="#d4422d" stroke-width="1.51"/><path d="M1152,768L1272,760L1171,664Z" fill="#e31f1e" stroke="#e31f1e" stroke-width="1.51"/><path d="M998,892L1024,909L1020,841Z" fill="#dc2a26" stroke="#dc2a26" stroke-width="1.51"/><path d="M1043,1001L1024,909L1013,1013Z" fill="#c92527" stroke="#c92527" stroke-width="1.51"/><path d="M1299,419L1325,381L1230,300Z" fill="#e96732" stroke="#e96732" stroke-width="1.51"/><path d="M1337,479L1325,381L1299,419Z" fill="#e55d30" stroke="#e55d30" stroke-width="1.51"/><path d="M1337,479L1299,419L1287,533Z" fill="#e5542e" stroke="#e5542e" stroke-width="1.51"/><path d="M1053,59L1044,9L975,63Z" fill="#ff9c5a" stroke="#ff9c5a" stroke-width="1.51"/><path d="M1197,15L1044,9L1053,59Z" fill="#fc9859" stroke="#fc9859" stroke-width="1.51"/><path d="M550,840L554,853L682,825Z" fill="#e76732" stroke="#e76732" stroke-width="1.51"/><path d="M477,827L554,853L550,840Z" fill="#e86d35" stroke="#e86d35" stroke-width="1.51"/><path d="M1432,521L1337,479L1287,533Z" fill="#e14b2c" stroke="#e14b2c" stroke-width="1.51"/><path d="M1197,15L1190,100L1300,80Z" fill="#f38e53" stroke="#f38e53" stroke-width="1.51"/><path d="M1229,199L1190,100L1128,186Z" fill="#f58845" stroke="#f58845" stroke-width="1.51"/><path d="M424,149L395,231L527,235Z" fill="#ffc25d" stroke="#ffc25d" stroke-width="1.51"/><path d="M439,355L330,443L436,452Z" fill="#ffac4e" stroke="#ffac4e" stroke-width="1.51"/><path d="M395,231L376,268L507,319Z" fill="#ffbc56" stroke="#ffbc56" stroke-width="1.51"/><path d="M902,-13L787,-50L766,63Z" fill="#ffb369" stroke="#ffb369" stroke-width="1.51"/><path d="M747,-94L787,-50L861,-134Z" fill="#ffbb77" stroke="#ffbb77" stroke-width="1.51"/><path d="M315,359L330,443L439,355Z" fill="#ffb354" stroke="#ffb354" stroke-width="1.51"/><path d="M391,856L477,827L442,710Z" fill="#ee783a" stroke="#ee783a" stroke-width="1.51"/><path d="M330,443L329,451L436,452Z" fill="#ffab50" stroke="#ffab50" stroke-width="1.51"/><path d="M787,-50L684,-36L766,63Z" fill="#ffbb6d" stroke="#ffbb6d" stroke-width="1.51"/><path d="M404,34L424,149L515,117Z" fill="#ffcd6c" stroke="#ffcd6c" stroke-width="1.51"/><path d="M515,117L424,149L527,235Z" fill="#fec45f" stroke="#fec45f" stroke-width="1.51"/><path d="M209,282L292,323L221,235Z" fill="#ffc966" stroke="#ffc966" stroke-width="1.51"/><path d="M554,853L634,930L682,825Z" fill="#e36233" stroke="#e36233" stroke-width="1.51"/><path d="M554,853L542,1017L634,930Z" fill="#d96336" stroke="#d96336" stroke-width="1.51"/><path d="M442,710L477,827L555,722Z" fill="#f37532" stroke="#f37532" stroke-width="1.51"/><path d="M367,673L442,710L409,627Z" fill="#fb863e" stroke="#fb863e" stroke-width="1.51"/><path d="M227,612L367,673L409,627Z" fill="#fe9047" stroke="#fe9047" stroke-width="1.51"/><path d="M1263,674L1346,661L1236,562Z" fill="#e42f24" stroke="#e42f24" stroke-width="1.51"/><path d="M1154,914L1152,768L1058,839Z" fill="#db1d21" stroke="#db1d21" stroke-width="1.51"/><path d="M1325,381L1362,339L1230,300Z" fill="#e76a34" stroke="#e76a34" stroke-width="1.51"/><path d="M1337,479L1362,339L1325,381Z" fill="#e46132" stroke="#e46132" stroke-width="1.51"/><path d="M292,323L315,359L376,268Z" fill="#ffbf5b" stroke="#ffbf5b" stroke-width="1.51"/><path d="M376,268L315,359L439,355Z" fill="#ffb956" stroke="#ffb956" stroke-width="1.51"/><path d="M190,402L232,530L329,451Z" fill="#ffb25a" stroke="#ffb25a" stroke-width="1.51"/><path d="M1272,760L1346,661L1263,674Z" fill="#dd2222" stroke="#dd2222" stroke-width="1.51"/><path d="M1337,479L1486,360L1362,339Z" fill="#df5f34" stroke="#df5f34" stroke-width="1.51"/><path d="M684,-36L553,-8L642,104Z" fill="#ffc46e" stroke="#ffc46e" stroke-width="1.51"/><path d="M1024,909L1154,914L1058,839Z" fill="#d72124" stroke="#d72124" stroke-width="1.51"/><path d="M1043,1001L1154,914L1024,909Z" fill="#cd1f25" stroke="#cd1f25" stroke-width="1.51"/><path d="M684,-36L615,-146L553,-8Z" fill="#ffc97a" stroke="#ffc97a" stroke-width="1.51"/><path d="M787,-50L747,-94L684,-36Z" fill="#ffbf75" stroke="#ffbf75" stroke-width="1.51"/><path d="M861,-134L787,-50L902,-13Z" fill="#ffb370" stroke="#ffb370" stroke-width="1.51"/><path d="M862,923L1013,1013L998,892Z" fill="#d32e28" stroke="#d32e28" stroke-width="1.51"/><path d="M750,1044L873,1016L802,900Z" fill="#cb462e" stroke="#cb462e" stroke-width="1.51"/><path d="M190,402L329,451L330,443Z" fill="#ffb558" stroke="#ffb558" stroke-width="1.51"/><path d="M329,451L232,530L409,627Z" fill="#ffa04e" stroke="#ffa04e" stroke-width="1.51"/><path d="M292,323L376,268L221,235Z" fill="#fec662" stroke="#fec662" stroke-width="1.51"/><path d="M950,-128L861,-134L902,-13Z" fill="#ffae72" stroke="#ffae72" stroke-width="1.51"/><path d="M1190,100L1197,15L1053,59Z" fill="#fa9254" stroke="#fa9254" stroke-width="1.51"/><path d="M1300,80L1190,100L1229,199Z" fill="#f1894b" stroke="#f1894b" stroke-width="1.51"/><path d="M634,930L690,1015L802,900Z" fill="#d45632" stroke="#d45632" stroke-width="1.51"/><path d="M569,1056L690,1015L634,930Z" fill="#ca5a35" stroke="#ca5a35" stroke-width="1.51"/><path d="M553,-8L501,-15L515,117Z" fill="#ffcb70" stroke="#ffcb70" stroke-width="1.51"/><path d="M424,149L328,85L395,231Z" fill="#ffce6b" stroke="#ffce6b" stroke-width="1.51"/><path d="M502,-93L501,-15L553,-8Z" fill="#ffd07a" stroke="#ffd07a" stroke-width="1.51"/><path d="M1013,1013L1024,909L998,892Z" fill="#d22827" stroke="#d22827" stroke-width="1.51"/><path d="M1373,830L1390,649L1346,661Z" fill="#d51c23" stroke="#d51c23" stroke-width="1.51"/><path d="M1346,661L1390,649L1287,533Z" fill="#e03027" stroke="#e03027" stroke-width="1.51"/><path d="M1373,830L1346,661L1272,760Z" fill="#d61320" stroke="#d61320" stroke-width="1.51"/><path d="M873,1016L1013,1013L862,923Z" fill="#cb332a" stroke="#cb332a" stroke-width="1.51"/><path d="M950,-128L902,-13L1044,9Z" fill="#ffa568" stroke="#ffa568" stroke-width="1.51"/><path d="M747,-94L642,-153L684,-36Z" fill="#ffc57c" stroke="#ffc57c" stroke-width="1.51"/><path d="M1403,203L1300,80L1229,199Z" fill="#ea8348" stroke="#ea8348" stroke-width="1.51"/><path d="M477,827L461,910L554,853Z" fill="#e56e37" stroke="#e56e37" stroke-width="1.51"/><path d="M391,856L461,910L477,827Z" fill="#e5733b" stroke="#e5733b" stroke-width="1.51"/><path d="M1080,-98L950,-128L1044,9Z" fill="#ffa26a" stroke="#ffa26a" stroke-width="1.51"/><path d="M1390,649L1432,521L1287,533Z" fill="#df3b2a" stroke="#df3b2a" stroke-width="1.51"/><path d="M1362,339L1403,203L1230,300Z" fill="#e67139" stroke="#e67139" stroke-width="1.51"/><path d="M690,1015L750,1044L802,900Z" fill="#cc4e31" stroke="#cc4e31" stroke-width="1.51"/><path d="M873,1016L1013,1057L1013,1013Z" fill="#c12929" stroke="#c12929" stroke-width="1.51"/><path d="M737,1103L750,1044L690,1015Z" fill="#bd4e32" stroke="#bd4e32" stroke-width="1.51"/><path d="M1276,941L1373,830L1272,760Z" fill="#cc0c23" stroke="#cc0c23" stroke-width="1.51"/><path d="M1043,1001L1163,961L1154,914Z" fill="#c71824" stroke="#c71824" stroke-width="1.51"/><path d="M1032,1069L1163,961L1043,1001Z" fill="#bf1d25" stroke="#bf1d25" stroke-width="1.51"/><path d="M750,1044L849,1056L873,1016Z" fill="#c0412e" stroke="#c0412e" stroke-width="1.51"/><path d="M1197,15L1080,-98L1044,9Z" fill="#fd9a60" stroke="#fd9a60" stroke-width="1.51"/><path d="M1207,-140L1080,-98L1197,15Z" fill="#fb9965" stroke="#fb9965" stroke-width="1.51"/><path d="M360,838L391,856L442,710Z" fill="#ef7b3d" stroke="#ef7b3d" stroke-width="1.51"/><path d="M360,838L442,710L367,673Z" fill="#f6803c" stroke="#f6803c" stroke-width="1.51"/><path d="M501,-15L404,34L515,117Z" fill="#ffce71" stroke="#ffce71" stroke-width="1.51"/><path d="M190,402L330,443L315,359Z" fill="#ffb85a" stroke="#ffb85a" stroke-width="1.51"/><path d="M427,1034L542,1017L461,910Z" fill="#ce683a" stroke="#ce683a" stroke-width="1.51"/><path d="M242,770L360,838L367,673Z" fill="#f48442" stroke="#f48442" stroke-width="1.51"/><path d="M1434,206L1403,203L1362,339Z" fill="#e1733f" stroke="#e1733f" stroke-width="1.51"/><path d="M849,1056L1013,1057L873,1016Z" fill="#bf322b" stroke="#bf322b" stroke-width="1.51"/><path d="M1013,1013L1013,1057L1043,1001Z" fill="#bf2327" stroke="#bf2327" stroke-width="1.51"/><path d="M404,34L328,85L424,149Z" fill="#ffd373" stroke="#ffd373" stroke-width="1.51"/><path d="M292,323L190,402L315,359Z" fill="#ffbe5e" stroke="#ffbe5e" stroke-width="1.51"/><path d="M232,530L227,612L409,627Z" fill="#ff9a4d" stroke="#ff9a4d" stroke-width="1.51"/><path d="M1403,203L1343,65L1300,80Z" fill="#e7854e" stroke="#e7854e" stroke-width="1.51"/><path d="M1300,80L1318,5L1197,15Z" fill="#f08e58" stroke="#f08e58" stroke-width="1.51"/><path d="M461,910L542,1017L554,853Z" fill="#da6838" stroke="#da6838" stroke-width="1.51"/><path d="M427,1034L461,910L342,1044Z" fill="#cd6e40" stroke="#cd6e40" stroke-width="1.51"/><path d="M1207,-140L642,-153L861,-134Z" fill="#ffb179" stroke="#ffb179" stroke-width="1.51"/><path d="M861,-134L642,-153L747,-94Z" fill="#ffc27e" stroke="#ffc27e" stroke-width="1.51"/><path d="M501,-15L403,-115L404,34Z" fill="#ffd680" stroke="#ffd680" stroke-width="1.51"/><path d="M296,-1L246,73L328,85Z" fill="#ffdd82" stroke="#ffdd82" stroke-width="1.51"/><path d="M227,612L240,678L367,673Z" fill="#fd934b" stroke="#fd934b" stroke-width="1.51"/><path d="M849,1056L1032,1069L1013,1057Z" fill="#bb2929" stroke="#bb2929" stroke-width="1.51"/><path d="M1013,1057L1032,1069L1043,1001Z" fill="#bb2227" stroke="#bb2227" stroke-width="1.51"/><path d="M642,-153L615,-146L684,-36Z" fill="#ffca80" stroke="#ffca80" stroke-width="1.51"/><path d="M1403,203L1499,74L1343,65Z" fill="#e18350" stroke="#e18350" stroke-width="1.51"/><path d="M1509,260L1434,206L1362,339Z" fill="#db6f3c" stroke="#db6f3c" stroke-width="1.51"/><path d="M615,-146L502,-93L553,-8Z" fill="#ffcf7f" stroke="#ffcf7f" stroke-width="1.51"/><path d="M1390,649L1495,576L1432,521Z" fill="#d7362a" stroke="#d7362a" stroke-width="1.51"/><path d="M1276,941L1272,760L1154,914Z" fill="#cf0e22" stroke="#cf0e22" stroke-width="1.51"/><path d="M1276,941L1154,914L1163,961Z" fill="#c70c22" stroke="#c70c22" stroke-width="1.51"/><path d="M1432,521L1486,360L1337,479Z" fill="#db5631" stroke="#db5631" stroke-width="1.51"/><path d="M1566,527L1486,360L1432,521Z" fill="#d05031" stroke="#d05031" stroke-width="1.51"/><path d="M1301,1020L1276,941L1163,961Z" fill="#bb0924" stroke="#bb0924" stroke-width="1.51"/><path d="M209,282L190,402L292,323Z" fill="#ffc363" stroke="#ffc363" stroke-width="1.51"/><path d="M232,530L172,577L227,612Z" fill="#ffa155" stroke="#ffa155" stroke-width="1.51"/><path d="M1390,-21L1318,5L1343,65Z" fill="#e98c5c" stroke="#e98c5c" stroke-width="1.51"/><path d="M1343,65L1318,5L1300,80Z" fill="#eb8b56" stroke="#eb8b56" stroke-width="1.51"/><path d="M221,235L376,268L395,231Z" fill="#ffc763" stroke="#ffc763" stroke-width="1.51"/><path d="M750,1044L737,1103L849,1056Z" fill="#bd4730" stroke="#bd4730" stroke-width="1.51"/><path d="M849,1056L737,1103L1032,1069Z" fill="#bd382d" stroke="#bd382d" stroke-width="1.51"/><path d="M685,1118L737,1103L690,1015Z" fill="#bd5033" stroke="#bd5033" stroke-width="1.51"/><path d="M328,85L221,235L395,231Z" fill="#fed16c" stroke="#fed16c" stroke-width="1.51"/><path d="M542,1017L569,1056L634,930Z" fill="#ca5e36" stroke="#ca5e36" stroke-width="1.51"/><path d="M463,1075L569,1056L542,1017Z" fill="#c06039" stroke="#c06039" stroke-width="1.51"/><path d="M1518,745L1495,576L1390,649Z" fill="#ce2526" stroke="#ce2526" stroke-width="1.51"/><path d="M342,1044L461,910L391,856Z" fill="#da7341" stroke="#da7341" stroke-width="1.51"/><path d="M240,678L242,770L367,673Z" fill="#fa8d47" stroke="#fa8d47" stroke-width="1.51"/><path d="M135,729L242,770L240,678Z" fill="#f98f4d" stroke="#f98f4d" stroke-width="1.51"/><path d="M135,729L240,678L227,612Z" fill="#fd9550" stroke="#fd9550" stroke-width="1.51"/><path d="M162,514L172,577L232,530Z" fill="#ffa85a" stroke="#ffa85a" stroke-width="1.51"/><path d="M737,1103L1156,1141L1032,1069Z" fill="#bb2829" stroke="#bb2829" stroke-width="1.51"/><path d="M569,1056L685,1118L690,1015Z" fill="#be5535" stroke="#be5535" stroke-width="1.51"/><path d="M106,436L162,514L190,402Z" fill="#ffb963" stroke="#ffb963" stroke-width="1.51"/><path d="M190,402L162,514L232,530Z" fill="#ffb15d" stroke="#ffb15d" stroke-width="1.51"/><path d="M1373,830L1518,745L1390,649Z" fill="#cd1222" stroke="#cd1222" stroke-width="1.51"/><path d="M1276,941L1388,884L1373,830Z" fill="#c40525" stroke="#c40525" stroke-width="1.51"/><path d="M1394,972L1388,884L1276,941Z" fill="#bb0325" stroke="#bb0325" stroke-width="1.51"/><path d="M1486,360L1509,260L1362,339Z" fill="#d86738" stroke="#d86738" stroke-width="1.51"/><path d="M1499,74L1390,-21L1343,65Z" fill="#e38859" stroke="#e38859" stroke-width="1.51"/><path d="M1586,356L1509,260L1486,360Z" fill="#cd6338" stroke="#cd6338" stroke-width="1.51"/><path d="M1080,-98L1207,-140L950,-128Z" fill="#ffa26f" stroke="#ffa26f" stroke-width="1.51"/><path d="M950,-128L1207,-140L861,-134Z" fill="#ffa873" stroke="#ffa873" stroke-width="1.51"/><path d="M1253,-128L1207,-140L1197,15Z" fill="#f79766" stroke="#f79766" stroke-width="1.51"/><path d="M1495,576L1534,556L1432,521Z" fill="#d03d2c" stroke="#d03d2c" stroke-width="1.51"/><path d="M1552,732L1534,556L1495,576Z" fill="#c92a28" stroke="#c92a28" stroke-width="1.51"/><path d="M328,85L246,73L221,235Z" fill="#feda79" stroke="#feda79" stroke-width="1.51"/><path d="M57,278L190,402L209,282Z" fill="#ffc86b" stroke="#ffc86b" stroke-width="1.51"/><path d="M57,278L106,436L190,402Z" fill="#ffc36b" stroke="#ffc36b" stroke-width="1.51"/><path d="M296,-1L328,85L404,34Z" fill="#ffd97e" stroke="#ffd97e" stroke-width="1.51"/><path d="M403,-115L501,-15L502,-93Z" fill="#ffd583" stroke="#ffd583" stroke-width="1.51"/><path d="M299,-80L296,-1L404,34Z" fill="#ffde87" stroke="#ffde87" stroke-width="1.51"/><path d="M569,1056L410,1124L685,1118Z" fill="#bf5d38" stroke="#bf5d38" stroke-width="1.51"/><path d="M249,919L391,856L360,838Z" fill="#e67d45" stroke="#e67d45" stroke-width="1.51"/><path d="M1388,-130L1253,-128L1318,5Z" fill="#ee9368" stroke="#ee9368" stroke-width="1.51"/><path d="M1318,5L1253,-128L1197,15Z" fill="#f39360" stroke="#f39360" stroke-width="1.51"/><path d="M615,-146L403,-115L502,-93Z" fill="#ffd586" stroke="#ffd586" stroke-width="1.51"/><path d="M642,-153L403,-115L615,-146Z" fill="#ffd288" stroke="#ffd288" stroke-width="1.51"/><path d="M427,1034L463,1075L542,1017Z" fill="#c2653b" stroke="#c2653b" stroke-width="1.51"/><path d="M1499,74L1403,203L1434,206Z" fill="#dc7e4a" stroke="#dc7e4a" stroke-width="1.51"/><path d="M1156,1141L1301,1020L1163,961Z" fill="#b10a23" stroke="#b10a23" stroke-width="1.51"/><path d="M1534,556L1566,527L1432,521Z" fill="#cd402d" stroke="#cd402d" stroke-width="1.51"/><path d="M1640,593L1566,527L1534,556Z" fill="#c3382c" stroke="#c3382c" stroke-width="1.51"/><path d="M1502,814L1518,745L1373,830Z" fill="#c10a23" stroke="#c10a23" stroke-width="1.51"/><path d="M1502,814L1373,830L1388,884Z" fill="#c10525" stroke="#c10525" stroke-width="1.51"/><path d="M163,163L209,282L221,235Z" fill="#ffd272" stroke="#ffd272" stroke-width="1.51"/><path d="M162,514L69,626L172,577Z" fill="#ffa55d" stroke="#ffa55d" stroke-width="1.51"/><path d="M135,729L204,852L242,770Z" fill="#f38b4f" stroke="#f38b4f" stroke-width="1.51"/><path d="M246,73L163,163L221,235Z" fill="#ffda7a" stroke="#ffda7a" stroke-width="1.51"/><path d="M138,133L163,163L246,73Z" fill="#ffde82" stroke="#ffde82" stroke-width="1.51"/><path d="M106,436L92,462L162,514Z" fill="#ffb765" stroke="#ffb765" stroke-width="1.51"/><path d="M-8,400L92,462L106,436Z" fill="#ffbf6d" stroke="#ffbf6d" stroke-width="1.51"/><path d="M242,770L204,852L360,838Z" fill="#ed8649" stroke="#ed8649" stroke-width="1.51"/><path d="M427,1034L410,1124L463,1075Z" fill="#bf683f" stroke="#bf683f" stroke-width="1.51"/><path d="M135,729L227,612L172,577Z" fill="#ff9a54" stroke="#ff9a54" stroke-width="1.51"/><path d="M1596,148L1499,74L1434,206Z" fill="#d27c4c" stroke="#d27c4c" stroke-width="1.51"/><path d="M1566,527L1586,356L1486,360Z" fill="#c95734" stroke="#c95734" stroke-width="1.51"/><path d="M1454,939L1502,814L1388,884Z" fill="#b90226" stroke="#b90226" stroke-width="1.51"/><path d="M204,852L249,919L360,838Z" fill="#e6834a" stroke="#e6834a" stroke-width="1.51"/><path d="M685,1118L1156,1141L737,1103Z" fill="#bd3a2d" stroke="#bd3a2d" stroke-width="1.51"/><path d="M1032,1069L1156,1141L1163,961Z" fill="#b31625" stroke="#b31625" stroke-width="1.51"/><path d="M1358,1142L1394,972L1301,1020Z" fill="#a40225" stroke="#a40225" stroke-width="1.51"/><path d="M1301,1020L1394,972L1276,941Z" fill="#b40425" stroke="#b40425" stroke-width="1.51"/><path d="M69,626L135,729L172,577Z" fill="#ff9c59" stroke="#ff9c59" stroke-width="1.51"/><path d="M1596,148L1434,206L1509,260Z" fill="#d17445" stroke="#d17445" stroke-width="1.51"/><path d="M299,-80L215,23L296,-1Z" fill="#ffe38d" stroke="#ffe38d" stroke-width="1.51"/><path d="M296,-1L215,23L246,73Z" fill="#ffe188" stroke="#ffe188" stroke-width="1.51"/><path d="M403,-115L299,-80L404,34Z" fill="#ffdd89" stroke="#ffdd89" stroke-width="1.51"/><path d="M1565,807L1552,732L1518,745Z" fill="#bb0c23" stroke="#bb0c23" stroke-width="1.51"/><path d="M1518,745L1552,732L1495,576Z" fill="#c41f25" stroke="#c41f25" stroke-width="1.51"/><path d="M1643,300L1602,282L1586,356Z" fill="#c16139" stroke="#c16139" stroke-width="1.51"/><path d="M35,865L197,873L204,852Z" fill="#e98955" stroke="#e98955" stroke-width="1.51"/><path d="M204,852L197,873L249,919Z" fill="#e6854f" stroke="#e6854f" stroke-width="1.51"/><path d="M299,1104L342,1044L235,1047Z" fill="#c1744a" stroke="#c1744a" stroke-width="1.51"/><path d="M249,919L342,1044L391,856Z" fill="#da7947" stroke="#da7947" stroke-width="1.51"/><path d="M215,23L138,133L246,73Z" fill="#ffe086" stroke="#ffe086" stroke-width="1.51"/><path d="M163,163L57,278L209,282Z" fill="#ffd375" stroke="#ffd375" stroke-width="1.51"/><path d="M1586,356L1602,282L1509,260Z" fill="#c86539" stroke="#c86539" stroke-width="1.51"/><path d="M1647,417L1586,356L1566,527Z" fill="#c15233" stroke="#c15233" stroke-width="1.51"/><path d="M1478,996L1454,939L1394,972Z" fill="#aa0026" stroke="#aa0026" stroke-width="1.51"/><path d="M1394,972L1454,939L1388,884Z" fill="#b50026" stroke="#b50026" stroke-width="1.51"/><path d="M1502,814L1565,807L1518,745Z" fill="#ba0a23" stroke="#ba0a23" stroke-width="1.51"/><path d="M92,462L69,626L162,514Z" fill="#ffad62" stroke="#ffad62" stroke-width="1.51"/><path d="M135,729L35,865L204,852Z" fill="#f08c55" stroke="#f08c55" stroke-width="1.51"/><path d="M-29,568L69,626L92,462Z" fill="#ffad66" stroke="#ffad66" stroke-width="1.51"/><path d="M342,1044L410,1124L427,1034Z" fill="#c06b42" stroke="#c06b42" stroke-width="1.51"/><path d="M463,1075L410,1124L569,1056Z" fill="#bf633b" stroke="#bf633b" stroke-width="1.51"/><path d="M685,1118L410,1124L1156,1141Z" fill="#bd4b31" stroke="#bd4b31" stroke-width="1.51"/><path d="M1253,-128L1388,-130L1207,-140Z" fill="#f3976f" stroke="#f3976f" stroke-width="1.51"/><path d="M1390,-21L1388,-130L1318,5Z" fill="#e98f64" stroke="#e98f64" stroke-width="1.51"/><path d="M1471,-70L1388,-130L1390,-21Z" fill="#e48e68" stroke="#e48e68" stroke-width="1.51"/><path d="M1612,870L1565,807L1502,814Z" fill="#b00625" stroke="#b00625" stroke-width="1.51"/><path d="M1692,477L1647,417L1566,527Z" fill="#bd4a31" stroke="#bd4a31" stroke-width="1.51"/><path d="M20,185L57,278L163,163Z" fill="#ffd97f" stroke="#ffd97f" stroke-width="1.51"/><path d="M1640,593L1534,556L1552,732Z" fill="#c22828" stroke="#c22828" stroke-width="1.51"/><path d="M1644,688L1640,593L1552,732Z" fill="#b91f26" stroke="#b91f26" stroke-width="1.51"/><path d="M1499,74L1487,-46L1390,-21Z" fill="#dc885e" stroke="#dc885e" stroke-width="1.51"/><path d="M1602,282L1596,148L1509,260Z" fill="#c86e42" stroke="#c86e42" stroke-width="1.51"/><path d="M1712,241L1596,148L1602,282Z" fill="#c06c43" stroke="#c06c43" stroke-width="1.51"/><path d="M1647,417L1643,300L1586,356Z" fill="#be5b37" stroke="#be5b37" stroke-width="1.51"/><path d="M1571,-8L1487,-46L1499,74Z" fill="#d3855d" stroke="#d3855d" stroke-width="1.51"/><path d="M1487,-46L1471,-70L1390,-21Z" fill="#df8b64" stroke="#df8b64" stroke-width="1.51"/><path d="M138,133L85,127L163,163Z" fill="#ffdf84" stroke="#ffdf84" stroke-width="1.51"/><path d="M105,-1L85,127L138,133Z" fill="#ffe48d" stroke="#ffe48d" stroke-width="1.51"/><path d="M105,-1L138,133L215,23Z" fill="#ffe48e" stroke="#ffe48e" stroke-width="1.51"/><path d="M235,1047L342,1044L249,919Z" fill="#cc794b" stroke="#cc794b" stroke-width="1.51"/><path d="M342,1044L299,1104L410,1124Z" fill="#c06f46" stroke="#c06f46" stroke-width="1.51"/><path d="M69,626L54,719L135,729Z" fill="#fd995a" stroke="#fd995a" stroke-width="1.51"/><path d="M-52,663L54,719L69,626Z" fill="#ff9d61" stroke="#ff9d61" stroke-width="1.51"/><path d="M1156,1141L1315,1142L1301,1020Z" fill="#aa0724" stroke="#aa0724" stroke-width="1.51"/><path d="M1454,939L1612,870L1502,814Z" fill="#b00225" stroke="#b00225" stroke-width="1.51"/><path d="M1479,1080L1478,996L1394,972Z" fill="#9f0026" stroke="#9f0026" stroke-width="1.51"/><path d="M1640,593L1692,477L1566,527Z" fill="#bd3d2e" stroke="#bd3d2e" stroke-width="1.51"/><path d="M1673,768L1644,688L1552,732Z" fill="#b31224" stroke="#b31224" stroke-width="1.51"/><path d="M1673,768L1552,732L1565,807Z" fill="#b30b23" stroke="#b30b23" stroke-width="1.51"/><path d="M235,1047L249,919L160,992Z" fill="#d07e50" stroke="#d07e50" stroke-width="1.51"/><path d="M160,992L249,919L197,873Z" fill="#de8351" stroke="#de8351" stroke-width="1.51"/><path d="M1644,688L1692,477L1640,593Z" fill="#bc2f2b" stroke="#bc2f2b" stroke-width="1.51"/><path d="M1647,417L1712,241L1643,300Z" fill="#bf6039" stroke="#bf6039" stroke-width="1.51"/><path d="M57,278L-8,400L106,436Z" fill="#ffc771" stroke="#ffc771" stroke-width="1.51"/><path d="M-12,327L-8,400L57,278Z" fill="#ffcc77" stroke="#ffcc77" stroke-width="1.51"/><path d="M1487,-46L1604,-79L1471,-70Z" fill="#d48967" stroke="#d48967" stroke-width="1.51"/><path d="M1596,148L1621,108L1499,74Z" fill="#ca7c51" stroke="#ca7c51" stroke-width="1.51"/><path d="M1670,103L1621,108L1596,148Z" fill="#c17850" stroke="#c17850" stroke-width="1.51"/><path d="M1712,241L1602,282L1643,300Z" fill="#bf663d" stroke="#bf663d" stroke-width="1.51"/><path d="M1315,1142L1358,1142L1301,1020Z" fill="#a40325" stroke="#a40325" stroke-width="1.51"/><path d="M-23,192L-12,327L57,278Z" fill="#ffd57e" stroke="#ffd57e" stroke-width="1.51"/><path d="M1621,108L1571,-8L1499,74Z" fill="#cc7f57" stroke="#cc7f57" stroke-width="1.51"/><path d="M1471,-70L1604,-79L1388,-130Z" fill="#d98c6b" stroke="#d98c6b" stroke-width="1.51"/><path d="M-23,192L20,185L-68,106Z" fill="#ffe48f" stroke="#ffe48f" stroke-width="1.51"/><path d="M85,127L20,185L163,163Z" fill="#ffdf85" stroke="#ffdf85" stroke-width="1.51"/><path d="M147,-107L105,-1L215,23Z" fill="#ffe999" stroke="#ffe999" stroke-width="1.51"/><path d="M35,865L160,992L197,873Z" fill="#e28757" stroke="#e28757" stroke-width="1.51"/><path d="M235,1047L144,1115L299,1104Z" fill="#c17850" stroke="#c17850" stroke-width="1.51"/><path d="M1478,996L1537,984L1454,939Z" fill="#a30026" stroke="#a30026" stroke-width="1.51"/><path d="M1533,1060L1537,984L1478,996Z" fill="#960026" stroke="#960026" stroke-width="1.51"/><path d="M1537,984L1612,870L1454,939Z" fill="#a50026" stroke="#a50026" stroke-width="1.51"/><path d="M1644,688L1673,768L1692,477Z" fill="#b92428" stroke="#b92428" stroke-width="1.51"/><path d="M-57,547L92,462L-8,400Z" fill="#ffbc70" stroke="#ffbc70" stroke-width="1.51"/><path d="M-57,547L-29,568L92,462Z" fill="#ffb26c" stroke="#ffb26c" stroke-width="1.51"/><path d="M54,719L17,808L135,729Z" fill="#f99358" stroke="#f99358" stroke-width="1.51"/><path d="M1612,870L1673,768L1565,807Z" fill="#aa0624" stroke="#aa0624" stroke-width="1.51"/><path d="M1358,1142L1479,1080L1394,972Z" fill="#9d0026" stroke="#9d0026" stroke-width="1.51"/><path d="M1537,984L1690,932L1612,870Z" fill="#9b0026" stroke="#9b0026" stroke-width="1.51"/><path d="M299,-80L147,-107L215,23Z" fill="#ffe897" stroke="#ffe897" stroke-width="1.51"/><path d="M-68,106L20,185L85,127Z" fill="#ffe48f" stroke="#ffe48f" stroke-width="1.51"/><path d="M403,-115L147,-107L299,-80Z" fill="#ffe798" stroke="#ffe798" stroke-width="1.51"/><path d="M642,-153L147,-107L403,-115Z" fill="#ffdf91" stroke="#ffdf91" stroke-width="1.51"/><path d="M1692,477L1712,241L1647,417Z" fill="#be5836" stroke="#be5836" stroke-width="1.51"/><path d="M1621,108L1679,-14L1571,-8Z" fill="#c37e5b" stroke="#c37e5b" stroke-width="1.51"/><path d="M1724,998L1712,241L1692,477Z" fill="#bd332b" stroke="#bd332b" stroke-width="1.51"/><path d="M-46,755L17,808L54,719Z" fill="#f9955e" stroke="#f9955e" stroke-width="1.51"/><path d="M1712,241L1670,103L1596,148Z" fill="#c1744a" stroke="#c1744a" stroke-width="1.51"/><path d="M-29,568L-52,663L69,626Z" fill="#ffa466" stroke="#ffa466" stroke-width="1.51"/><path d="M-109,533L-57,547L-8,400Z" fill="#ffba74" stroke="#ffba74" stroke-width="1.51"/><path d="M-183,378L-109,533L-8,400Z" fill="#ffc57c" stroke="#ffc57c" stroke-width="1.51"/><path d="M20,185L-23,192L57,278Z" fill="#ffdb83" stroke="#ffdb83" stroke-width="1.51"/><path d="M12,-46L85,127L105,-1Z" fill="#ffea99" stroke="#ffea99" stroke-width="1.51"/><path d="M17,808L35,865L135,729Z" fill="#f3905a" stroke="#f3905a" stroke-width="1.51"/><path d="M-57,547L-52,663L-29,568Z" fill="#ffa96c" stroke="#ffa96c" stroke-width="1.51"/><path d="M17,808L-77,864L35,865Z" fill="#ed9162" stroke="#ed9162" stroke-width="1.51"/><path d="M1652,1087L1533,1060L1479,1080Z" fill="#890026" stroke="#890026" stroke-width="1.51"/><path d="M1479,1080L1533,1060L1478,996Z" fill="#930026" stroke="#930026" stroke-width="1.51"/><path d="M1612,870L1690,932L1673,768Z" fill="#a40325" stroke="#a40325" stroke-width="1.51"/><path d="M1679,-14L1604,-79L1571,-8Z" fill="#c58263" stroke="#c58263" stroke-width="1.51"/><path d="M1571,-8L1604,-79L1487,-46Z" fill="#ce8664" stroke="#ce8664" stroke-width="1.51"/><path d="M9,982L98,1019L35,865Z" fill="#d9875e" stroke="#d9875e" stroke-width="1.51"/><path d="M35,865L98,1019L160,992Z" fill="#d8855a" stroke="#d8855a" stroke-width="1.51"/><path d="M160,992L144,1115L235,1047Z" fill="#c27a53" stroke="#c27a53" stroke-width="1.51"/><path d="M-52,663L-46,755L54,719Z" fill="#fd9a63" stroke="#fd9a63" stroke-width="1.51"/><path d="M-179,728L-135,827L-46,755Z" fill="#fa9a6a" stroke="#fa9a6a" stroke-width="1.51"/><path d="M-57,547L-138,581L-52,663Z" fill="#ffaa6f" stroke="#ffaa6f" stroke-width="1.51"/><path d="M-167,316L-8,400L-12,327Z" fill="#ffce7e" stroke="#ffce7e" stroke-width="1.51"/><path d="M1670,103L1679,-14L1621,108Z" fill="#c27c57" stroke="#c27c57" stroke-width="1.51"/><path d="M1712,241L1679,-14L1670,103Z" fill="#c27951" stroke="#c27951" stroke-width="1.51"/><path d="M22,1102L144,1115L98,1019Z" fill="#c37e5b" stroke="#c37e5b" stroke-width="1.51"/><path d="M98,1019L144,1115L160,992Z" fill="#c57d57" stroke="#c57d57" stroke-width="1.51"/><path d="M299,1104L144,1115L410,1124Z" fill="#c1754b" stroke="#c1754b" stroke-width="1.51"/><path d="M147,-107L52,-100L105,-1Z" fill="#ffeea4" stroke="#ffeea4" stroke-width="1.51"/><path d="M-27,-109L52,-100L147,-107Z" fill="#fff2ae" stroke="#fff2ae" stroke-width="1.51"/><path d="M52,-100L12,-46L105,-1Z" fill="#ffefa5" stroke="#ffefa5" stroke-width="1.51"/><path d="M-23,192L-167,316L-12,327Z" fill="#ffd684" stroke="#ffd684" stroke-width="1.51"/><path d="M1652,1087L1690,932L1537,984Z" fill="#8a0026" stroke="#8a0026" stroke-width="1.51"/><path d="M1673,768L1724,998L1692,477Z" fill="#b10d23" stroke="#b10d23" stroke-width="1.51"/><path d="M12,-46L-68,106L85,127Z" fill="#ffe99a" stroke="#ffe99a" stroke-width="1.51"/><path d="M-153,99L-93,153L-68,106Z" fill="#ffea9d" stroke="#ffea9d" stroke-width="1.51"/><path d="M-68,106L-93,153L-23,192Z" fill="#ffe695" stroke="#ffe695" stroke-width="1.51"/><path d="M-77,864L9,982L35,865Z" fill="#e68d64" stroke="#e68d64" stroke-width="1.51"/><path d="M-77,864L17,808L-46,755Z" fill="#f39463" stroke="#f39463" stroke-width="1.51"/><path d="M-109,533L-138,581L-57,547Z" fill="#ffb274" stroke="#ffb274" stroke-width="1.51"/><path d="M-183,378L-138,581L-109,533Z" fill="#ffbd7c" stroke="#ffbd7c" stroke-width="1.51"/><path d="M1679,-14L1693,-63L1604,-79Z" fill="#c48365" stroke="#c48365" stroke-width="1.51"/><path d="M1604,-79L1693,-63L1388,-130Z" fill="#ce886a" stroke="#ce886a" stroke-width="1.51"/><path d="M1712,241L1693,-63L1679,-14Z" fill="#c27c58" stroke="#c27c58" stroke-width="1.51"/><path d="M-135,827L-77,864L-46,755Z" fill="#f39568" stroke="#f39568" stroke-width="1.51"/><path d="M-93,153L-167,316L-23,192Z" fill="#ffdf8e" stroke="#ffdf8e" stroke-width="1.51"/><path d="M1533,1060L1652,1087L1537,984Z" fill="#890026" stroke="#890026" stroke-width="1.51"/><path d="M1358,1142L1652,1087L1479,1080Z" fill="#910026" stroke="#910026" stroke-width="1.51"/><path d="M-167,316L-183,378L-8,400Z" fill="#ffce82" stroke="#ffce82" stroke-width="1.51"/><path d="M-179,728L-46,755L-52,663Z" fill="#fe9d69" stroke="#fe9d69" stroke-width="1.51"/><path d="M1652,1087L1724,998L1690,932Z" fill="#890026" stroke="#890026" stroke-width="1.51"/><path d="M1690,932L1724,998L1673,768Z" fill="#9f0026" stroke="#9f0026" stroke-width="1.51"/><path d="M-122,-39L-153,99L-68,106Z" fill="#ffefa7" stroke="#ffefa7" stroke-width="1.51"/><path d="M-93,153L-153,99L-167,316Z" fill="#ffe496" stroke="#ffe496" stroke-width="1.51"/><path d="M52,-100L-27,-109L12,-46Z" fill="#fff3af" stroke="#fff3af" stroke-width="1.51"/><path d="M642,-153L-27,-109L147,-107Z" fill="#ffea9e" stroke="#ffea9e" stroke-width="1.51"/><path d="M-36,1111L22,1102L9,982Z" fill="#c38163" stroke="#c38163" stroke-width="1.51"/><path d="M9,982L22,1102L98,1019Z" fill="#c8825f" stroke="#c8825f" stroke-width="1.51"/><path d="M-77,864L-104,906L9,982Z" fill="#e38e68" stroke="#e38e68" stroke-width="1.51"/><path d="M-179,728L-52,663L-138,581Z" fill="#ffa570" stroke="#ffa570" stroke-width="1.51"/><path d="M-135,827L-104,906L-77,864Z" fill="#ec936b" stroke="#ec936b" stroke-width="1.51"/><path d="M-183,378L-179,728L-138,581Z" fill="#ffb379" stroke="#ffb379" stroke-width="1.51"/><path d="M-135,827L-181,957L-104,906Z" fill="#e9936f" stroke="#e9936f" stroke-width="1.51"/><path d="M-122,-39L-68,106L12,-46Z" fill="#fff0a8" stroke="#fff0a8" stroke-width="1.51"/><path d="M-167,316L-153,99L-183,378Z" fill="#ffdc8f" stroke="#ffdc8f" stroke-width="1.51"/><path d="M-93,-103L-122,-39L12,-46Z" fill="#fff4b3" stroke="#fff4b3" stroke-width="1.51"/><path d="M-27,-109L-93,-103L12,-46Z" fill="#fff5b3" stroke="#fff5b3" stroke-width="1.51"/><path d="M-181,957L9,982L-104,906Z" fill="#dd8d6b" stroke="#dd8d6b" stroke-width="1.51"/><path d="M-181,957L-36,1111L9,982Z" fill="#cd8768" stroke="#cd8768" stroke-width="1.51"/><path d="M22,1102L-36,1111L144,1115Z" fill="#c3805f" stroke="#c3805f" stroke-width="1.51"/><path d="M144,1115L-184,1130L410,1124Z" fill="#c27d58" stroke="#c27d58" stroke-width="1.51"/><path d="M-183,378L-181,957L-179,728Z" fill="#ffa473" stroke="#ffa473" stroke-width="1.51"/><path d="M-179,728L-181,957L-135,827Z" fill="#f19770" stroke="#f19770" stroke-width="1.51"/><path d="M-181,957L-184,1130L-36,1111Z" fill="#c5876e" stroke="#c5876e" stroke-width="1.51"/><path d="M-36,1111L-184,1130L144,1115Z" fill="#c48265" stroke="#c48265" stroke-width="1.51"/><path d="M410,1124L-184,1130L1156,1141Z" fill="#bf663c" stroke="#bf663c" stroke-width="1.51"/><path d="M-183,378L-184,1130L-181,957Z" fill="#f39971" stroke="#f39971" stroke-width="1.51"/></svg>