<svg
    xmlns="http://www.w3.org/2000/svg" viewBox="0 0 48.33 43.36">
    <defs>
        <style>.cls-1{fill:none;stroke:#010101;stroke-linecap:round;stroke-linejoin:round;stroke-width:1.75px;}</style>
    </defs>
    <title>SANTE_NOIR</title>
    <g id="Calque_2" data-name="Calque 2">
        <g id="Calque_1-2" data-name="Calque 1">
            <polyline class="cls-1" points="1 20.85 7.62 20.85 15.89 10.93 24.16 32.44 25.82 22.51 27.47 22.51 32.44 10.93 40.71 32.44 44.02 20.85 47.33 20.85"/>
            <path class="cls-1" d="M45.67,17.54a14.27,14.27,0,0,0,1.66-5.79C47.33,5.47,42,1,35.74,1A11.73,11.73,0,0,0,24.16,12.58,11.73,11.73,0,0,0,12.58,1C6.3,1,1,5.47,1,11.75a10.2,10.2,0,0,0,.83,5"/>
            <polyline class="cls-1" points="9.27 25.82 24.16 42.36 35.74 29.13"/>
        </g>
    </g>
</svg>