<svg
    xmlns="http://www.w3.org/2000/svg" viewBox="0 0 36.25 36.25">
    <defs>
        <style>.cls-1{fill:none;stroke:#010101;stroke-linecap:round;stroke-linejoin:round;stroke-width:1.25px;}</style>
    </defs>
    <title>BUS NOIR</title>
    <g id="Calque_2" data-name="Calque 2">
        <g id="Calque_1-2" data-name="Calque 1">
            <rect class="cls-1" x="8.09" y="8.09" width="20.08" height="11.81"/>
            <path class="cls-1" d="M5.72,30.52h4.72a0,0,0,0,1,0,0v3.15a1.57,1.57,0,0,1-1.57,1.57H7.3a1.57,1.57,0,0,1-1.57-1.57V30.52a0,0,0,0,1,0,0Z"/>
            <path class="cls-1" d="M25.8,30.52h4.72a0,0,0,0,1,0,0v3.15a1.57,1.57,0,0,1-1.57,1.57H27.37a1.57,1.57,0,0,1-1.57-1.57V30.52a0,0,0,0,1,0,0Z"/>
            <polyline class="cls-1" points="5.72 9.27 1 9.27 1 15.17"/>
            <polyline class="cls-1" points="30.52 9.27 35.25 9.27 35.25 15.17"/>
            <path class="cls-1" d="M30.52,21.08H31.7a2.36,2.36,0,0,1,2.37,2.36v4.72a2.36,2.36,0,0,1-2.37,2.36H4.54a2.36,2.36,0,0,1-2.36-2.36V23.44a2.36,2.36,0,0,1,2.36-2.36H5.72V6.9A5.85,5.85,0,0,1,11.54,1H24.7a5.87,5.87,0,0,1,5.85,5.9Z"/>
            <line class="cls-1" x1="12.81" y1="24.62" x2="23.44" y2="24.62"/>
            <line class="cls-1" x1="12.81" y1="26.98" x2="23.44" y2="26.98"/>
            <circle class="cls-1" cx="8.09" cy="25.8" r="2.36"/>
            <circle class="cls-1" cx="28.16" cy="25.8" r="2.36"/>
            <circle class="cls-1" cx="11.63" cy="4.54" r="0.59"/>
            <circle class="cls-1" cx="24.62" cy="4.54" r="0.59"/>
        </g>
    </g>
</svg>