<?xml version="1.0" encoding="utf-8"?>
<!-- Generator: Adobe Illustrator 21.0.0, SVG Export Plug-In . SVG Version: 6.00 Build 0)  -->
<svg version="1.1" id="Calque_1" xmlns="http://www.w3.org/2000/svg" xmlns:xlink="http://www.w3.org/1999/xlink" x="0px" y="0px"
	 viewBox="0 0 85 85" style="enable-background:new 0 0 85 85;" xml:space="preserve">
<style type="text/css">
	.st0{fill:none;stroke:#010101;stroke-width:2.5;stroke-linecap:round;stroke-linejoin:round;}
</style>
<g id="Calque_2_11_">
	<g id="Calque_1-2_10_">
		<rect x="57.2" y="25.9" class="st0" width="7.8" height="9.8"/>
		<rect x="45.5" y="25.9" class="st0" width="7.8" height="9.8"/>
		<rect x="57.2" y="41.5" class="st0" width="7.8" height="9.8"/>
		<rect x="45.5" y="41.5" class="st0" width="7.8" height="9.8"/>
		<rect x="57.2" y="57.2" class="st0" width="7.8" height="9.8"/>
		<rect x="45.5" y="57.2" class="st0" width="7.8" height="9.8"/>
		<rect x="20" y="41.5" class="st0" width="5.9" height="9.8"/>
		<rect x="29.8" y="41.5" class="st0" width="5.9" height="9.8"/>
		<rect x="20" y="57.2" class="st0" width="5.9" height="9.8"/>
		<rect x="29.8" y="57.2" class="st0" width="5.9" height="9.8"/>
		<polygon class="st0" points="37.6,14.2 37.6,28.8 41.5,27.9 41.5,70.9 70.9,70.9 70.9,24 		"/>
		<polygon class="st0" points="14.2,70.9 41.5,70.9 41.5,27.9 14.2,38.6 		"/>
	</g>
</g>
</svg>
