<svg xmlns="http://www.w3.org/2000/svg" viewBox="0 0 576.3 320.02"><defs><style>.cls-1{fill:#6f428f;}</style></defs><title>LOGO_OZWILLO_BREF</title><g id="Calque_2" data-name="Calque 2"><g id="Calque_1-2" data-name="Calque 1"><path class="cls-1" d="M159.07,318.15q-65.83,0-112.45-46.63T0,159.07Q0,93.24,46.62,46.63T159.07,0q65.82,0,112.45,46.63t46.63,112.44q0,65.84-46.63,112.45T159.07,318.15m56.28-102.8q23.27-23.28,23.26-56.28t-23.26-56.29q-23.28-23.23-56.28-23.25T102.8,102.78q-23.26,23.3-23.27,56.29t23.27,56.28q23.27,23.27,56.27,23.26t56.28-23.26"/><path class="cls-1" d="M536.57,240.55a39.76,39.76,0,0,1,28.11,67.85A38.27,38.27,0,0,1,536.57,320H377.64a39.77,39.77,0,0,1-28-67.95l105.1-130.71H377.64a39.67,39.67,0,0,1-39.72-39.74,39.66,39.66,0,0,1,39.72-39.73H536.57a38.27,38.27,0,0,1,28.11,11.62A38.29,38.29,0,0,1,576.3,81.62a38.13,38.13,0,0,1-11.52,28L459.5,240.55Z"/></g></g></svg>