<?xml version="1.0" encoding="utf-8"?>
<!-- Generator: Adobe Illustrator 21.0.0, SVG Export Plug-In . SVG Version: 6.00 Build 0)  -->
<svg version="1.1" id="Calque_1" xmlns="http://www.w3.org/2000/svg" xmlns:xlink="http://www.w3.org/1999/xlink" x="0px" y="0px"
	 viewBox="0 0 203 49.7" style="enable-background:new 0 0 203 49.7;" xml:space="preserve">
<style type="text/css">
	.st0{fill:#2C55A2;stroke:#2C55A2;stroke-miterlimit:10;}
</style>
<path class="st0" d="M35.4,38.7c-2.3,2.2-5.8,3.3-9.4,3.3c-4,0-7.3-1.1-9.5-3.2c-2.2-2.1-3.5-4.9-3.5-8h4.3c0.1,2,0.9,3.9,2.3,5.2
	c1.5,1.4,4,2.1,6.4,2.1c2.5,0,4.7-0.5,6.2-1.9c1.1-1,1.7-2.4,1.7-3.9c0-2.6-1.6-4.7-5.6-5.3l-5.2-0.8c-5-0.8-8.8-3.5-8.8-8.8
	c0-2.5,1.1-4.9,2.9-6.5c2.3-2.2,5.2-3.3,8.7-3.3c3.2,0,6.4,1.1,8.6,3.2c2,1.8,3.1,4.4,3.2,7.1h-4.4c-0.1-1.5-0.6-3-1.6-4.2
	c-1.3-1.5-3.3-2.3-5.8-2.3c-2.4,0-4.4,0.7-5.9,2.3c-0.9,1-1.4,2.3-1.4,3.6c0,3,2.5,4.3,5,4.7c1.9,0.2,3.7,0.6,5.5,0.8
	c5.5,0.8,9.2,4.2,9.2,9.4C38.3,34.7,37.2,37.1,35.4,38.7z"/>
<path class="st0" d="M45.3,41.4V8.3h4.2v33.2H45.3z"/>
<path class="st0" d="M78.7,38.5c-5,4.7-12.9,4.7-17.9,0c-3.6-3.5-4.2-8.4-4.2-13.7s0.6-10.1,4.2-13.7c2.4-2.3,5.6-3.6,9-3.6
	c3.6,0,6.8,1.4,8.8,3.4c2,2,3.2,4.7,3.3,7.6h-4.3c0-1.7-0.7-3.4-1.8-4.6c-1.3-1.5-3.5-2.4-6-2.4c-2.3,0-4.4,0.9-6,2.5
	c-2.7,2.8-2.8,7.3-2.8,10.8s0.1,8,2.8,10.8c1.6,1.6,3.8,2.5,6,2.5c2.3,0,4.5-0.9,6-2.5c1.1-1.3,1.8-3,1.8-4.8H82
	C81.9,33.7,80.7,36.5,78.7,38.5z"/>
<path class="st0" d="M97.4,12.2v29.3h-4.2V12.2h-9.9V8.3h23.9v3.9H97.4z"/>
<path class="st0" d="M112.5,41.4V8.3h4.2v33.2H112.5z"/>
<path class="st0" d="M145.8,41.4l-2.7-7.9h-14.4l-2.7,7.9h-4.2l11.7-33.2h4.9l11.8,33.2H145.8z M135.8,12.4L130,29.7h11.7
	L135.8,12.4z"/>
<path class="st0" d="M183,41.4v-28L172.7,41h-3.3l-10.3-27.7v28.2h-4V8.3h6l10,27l10-27h5.8v33.2H183z"/>
</svg>
