<svg xmlns="http://www.w3.org/2000/svg" viewBox="0 0 253.47 184.93"><defs><style>.cls-1{fill:#fff;}.cls-2{fill:#2c55a2;stroke:#2c55a2;stroke-miterlimit:10;}</style></defs><title>2</title><g id="Calque_2" data-name="Calque 2"><g id="Calque_1-2" data-name="Calque 1"><path class="cls-1" d="M216.49,184.93A126.73,126.73,0,0,0,210.1,0H43.38A126.72,126.72,0,0,0,37,184.93Z"/><path class="cls-2" d="M131.35,121a5.33,5.33,0,0,1-7.35,0c-1.48-1.44-1.75-3.44-1.75-5.61s.27-4.18,1.75-5.62a5.33,5.33,0,0,1,7.35,0c1.48,1.44,1.75,3.44,1.75,5.62S132.83,119.51,131.35,121Zm-1.2-10a3.52,3.52,0,0,0-5,0c-1.12,1.15-1.17,3-1.17,4.43s0,3.27,1.17,4.42a3.52,3.52,0,0,0,5,0c1.12-1.15,1.18-3,1.18-4.42S131.27,112.06,130.15,110.91Z"/><path class="cls-2" d="M145.43,115.72a4.58,4.58,0,0,1-3.35,1.14h-3.37v5.29H137V108.5h5.06a4.52,4.52,0,0,1,3.47,1.24,4.17,4.17,0,0,1,1,2.88A4.22,4.22,0,0,1,145.43,115.72ZM142,110.06h-3.31v5.24H142c1.83,0,2.75-.85,2.75-2.68S143.72,110.06,142,110.06Z"/><path class="cls-2" d="M206.11,121.75,205,118.52h-5.93l-1.1,3.23h-1.73l4.81-13.64h2l4.83,13.64ZM202,109.82l-2.4,7.08h4.83Z"/><path class="cls-2" d="M214,109.37v12h-1.73v-12h-4.06v-1.6h9.85v1.6Z"/><path class="cls-2" d="M191.89,120.54a5.12,5.12,0,0,1-3.58,1.36h-4.75V108.26h4.75a5.13,5.13,0,0,1,3.58,1.38c1.5,1.43,1.75,3.47,1.75,5.43S193.37,119.11,191.89,120.54Zm-1.16-9.76a3.4,3.4,0,0,0-2.42-.94h-3v10.48h3a3.4,3.4,0,0,0,2.42-.94c1.08-1.1,1.18-2.85,1.18-4.31S191.81,111.9,190.73,110.78Z"/><path class="cls-2" d="M150,121.9V108.26h9.12v1.58h-7.41V114h6.51v1.62h-6.51v4.71h7.41v1.58Z"/><path class="cls-2" d="M171.49,122l-6.7-11v11h-1.65V108.38h1.92l6.7,11v-11h1.66V122Z"/><path class="cls-2" d="M49.34,100.61c-2.68,2.63-6.85,3.89-11,3.89-4.71,0-8.5-1.31-11.13-3.72A12.92,12.92,0,0,1,23,91.45h5.09a8.86,8.86,0,0,0,2.75,6.14c1.75,1.7,4.71,2.42,7.45,2.42,3,0,5.48-.61,7.24-2.25a5.73,5.73,0,0,0,2-4.55c0-3-1.92-5.54-6.52-6.25L34.87,86c-5.81-.88-10.36-4.11-10.36-10.31A10.71,10.71,0,0,1,27.91,68,14.44,14.44,0,0,1,38.1,64.2a14.65,14.65,0,0,1,10.09,3.73,11.69,11.69,0,0,1,3.73,8.34h-5.1a8.09,8.09,0,0,0-1.92-4.88,8.78,8.78,0,0,0-6.85-2.69,8.78,8.78,0,0,0-6.91,2.69,6.15,6.15,0,0,0-1.59,4.22c0,3.51,2.91,5.1,5.81,5.48,2.19.28,4.33.66,6.47,1,6.47.93,10.8,4.88,10.8,11A10.12,10.12,0,0,1,49.34,100.61Z"/><path class="cls-2" d="M60.85,103.79V64.92h5v38.87Z"/><path class="cls-2" d="M100.05,100.39a15.24,15.24,0,0,1-21,0c-4.22-4.11-4.88-9.81-4.88-16s.66-11.89,4.88-16A15.05,15.05,0,0,1,89.63,64.2a14.81,14.81,0,0,1,10.36,4,13.27,13.27,0,0,1,3.84,8.88h-5a8.44,8.44,0,0,0-2.13-5.43,9.43,9.43,0,0,0-7-2.85,9.85,9.85,0,0,0-7.07,3c-3.18,3.29-3.29,8.55-3.29,12.61S79.38,93.7,82.56,97a9.85,9.85,0,0,0,7.07,3,9.6,9.6,0,0,0,7.07-3,8.92,8.92,0,0,0,2.14-5.59h5A13.54,13.54,0,0,1,100.05,100.39Z"/><path class="cls-2" d="M121.91,69.47v34.32H117V69.47H105.4V64.92h28.07v4.55Z"/><path class="cls-2" d="M139.66,103.79V64.92h5v38.87Z"/><path class="cls-2" d="M178.7,103.79l-3.18-9.21H158.63l-3.12,9.21h-4.94l13.71-38.87H170l13.76,38.87ZM167,69.8,160.17,90h13.76Z"/><path class="cls-2" d="M222.28,103.79V71l-12.07,32.24h-3.83L194.32,70.73v33.06h-4.67V64.92h7l11.74,31.63,11.67-31.63h6.86v38.87Z"/><path class="cls-2" d="M228.71,121.75l-1.12-3.23h-5.93l-1.09,3.23h-1.74l4.81-13.64h2l4.83,13.64Zm-4.1-11.93-2.41,7.08H227Z"/></g></g></svg>