<svg xmlns="http://www.w3.org/2000/svg" viewBox="0 0 215.54 119.68"><defs><style>.cls-1{fill:#6e428e;}</style></defs><title>oz_logo</title><g id="Calque_2" data-name="Calque 2"><g id="Calque_1-2" data-name="Calque 1"><g id="Calque_2-2" data-name="Calque 2"><g id="Calque_1-2-2" data-name="Calque 1-2"><path class="cls-1" d="M59.49,119a57.28,57.28,0,0,1-42-17.44A57.32,57.32,0,0,1,0,59.49a57.28,57.28,0,0,1,17.44-42A57.32,57.32,0,0,1,59.49,0a57.32,57.32,0,0,1,42.06,17.44A57.3,57.3,0,0,1,119,59.49a57.29,57.29,0,0,1-17.44,42.06A57.4,57.4,0,0,1,59.49,119M80.54,80.54a28.68,28.68,0,0,0,8.7-21.05,28.7,28.7,0,0,0-8.7-21.05,28.76,28.76,0,0,0-21.05-8.7,28.66,28.66,0,0,0-21,8.7,28.76,28.76,0,0,0-8.71,21.05,28.65,28.65,0,0,0,8.71,21.05,28.66,28.66,0,0,0,21,8.7,28.68,28.68,0,0,0,21.05-8.7"/><path class="cls-1" d="M200.68,90a14.86,14.86,0,0,1,10.51,25.37,14.28,14.28,0,0,1-10.51,4.34H141.24a14.87,14.87,0,0,1-10.47-25.41l39.31-48.89H141.24a14.84,14.84,0,0,1-14.86-14.82v0a14.84,14.84,0,0,1,14.81-14.86h59.49A14.29,14.29,0,0,1,211.19,20a14.3,14.3,0,0,1,4.35,10.52A14.27,14.27,0,0,1,211.23,41L171.86,90Z"/></g></g></g></g></svg>