<svg xmlns="http://www.w3.org/2000/svg" viewBox="0 0 287.76 291.12"><defs><style>.cls-1{fill:#e52983;}.cls-2{fill:#00ace8;}.cls-3{fill:#2c55a1;}</style></defs><title>logo bandeau</title><g id="Calque_2" data-name="Calque 2"><g id="Calque_1-2" data-name="Calque 1"><circle class="cls-1" cx="192.66" cy="285.21" r="5.9"/><circle class="cls-1" cx="147.55" cy="26.41" r="5.9"/><path class="cls-1" d="M192.9,286l-.48-1.59a133,133,0,0,0,67.11-46.8,130.11,130.11,0,0,0,26.56-79.11c0-72.46-58.95-131.41-131.41-131.41-2.37,0-4.82.06-7.09.18l-.09-1.67c2.3-.12,4.78-.18,7.18-.18,73.38,0,133.08,59.7,133.08,133.08a131.74,131.74,0,0,1-26.9,80.11A134.64,134.64,0,0,1,192.9,286Z"/><circle class="cls-2" cx="48.83" cy="84.04" r="5.9"/><circle class="cls-2" cx="234.05" cy="230.36" r="5.9"/><path class="cls-3" d="M48.09,264.57c-.87-.83-2.17-2.09-3.23-3.14A153.24,153.24,0,0,1,93.54,12,152.1,152.1,0,0,1,122.28,3.1,155.33,155.33,0,0,1,184,3.1,152,152,0,0,1,212.76,12a153.7,153.7,0,0,1,26,14.12,143.51,143.51,0,0,1,14.34,11L252,38.37a141.92,141.92,0,0,0-14.19-10.85A150.88,150.88,0,0,0,183.68,4.73a153.83,153.83,0,0,0-61.06,0A150.83,150.83,0,0,0,68.45,27.52,152.05,152.05,0,0,0,13.57,94.17,150.52,150.52,0,0,0,4.74,122.6a153.34,153.34,0,0,0,0,61.06,150.61,150.61,0,0,0,22.8,54.17A153.24,153.24,0,0,0,46,260.25c1,1.05,2.35,2.29,3.21,3.11Z"/><circle class="cls-3" cx="252.58" cy="37.43" r="5.9"/><circle class="cls-3" cx="48.67" cy="263.96" r="5.9"/><path class="cls-2" d="M143.72,273.22A119,119,0,0,1,24.81,154.31,117.78,117.78,0,0,1,48.16,83.55l1.34,1a116.1,116.1,0,0,0-23,69.77,117.25,117.25,0,0,0,206.93,75.52l1.27,1.07A118.48,118.48,0,0,1,143.72,273.22Z"/><path class="cls-3" d="M75,166.93c-2.68,2.63-6.85,3.89-11,3.89-4.71,0-8.5-1.31-11.13-3.73a12.9,12.9,0,0,1-4.16-9.32h5.09a8.86,8.86,0,0,0,2.75,6.14c1.75,1.7,4.71,2.41,7.45,2.41,3,0,5.48-.6,7.24-2.24a5.73,5.73,0,0,0,2-4.55c0-3-1.92-5.54-6.52-6.25l-6.14-.94c-5.81-.87-10.36-4.11-10.36-10.3a10.69,10.69,0,0,1,3.4-7.68,14.44,14.44,0,0,1,10.19-3.84,14.61,14.61,0,0,1,10.09,3.73,11.67,11.67,0,0,1,3.73,8.33h-5.1a8.09,8.09,0,0,0-1.92-4.87A8.78,8.78,0,0,0,63.69,135a8.78,8.78,0,0,0-6.91,2.69,6.15,6.15,0,0,0-1.59,4.22c0,3.51,2.91,5.1,5.81,5.48,2.19.27,4.33.66,6.47,1,6.47.93,10.8,4.88,10.8,11A10.14,10.14,0,0,1,75,166.93Z"/><path class="cls-3" d="M86.49,170.11V131.24h5v38.87Z"/><path class="cls-3" d="M125.69,166.71a15.27,15.27,0,0,1-21,0c-4.22-4.11-4.88-9.82-4.88-16s.66-11.9,4.88-16a15.05,15.05,0,0,1,10.53-4.17,14.81,14.81,0,0,1,10.36,4,13.27,13.27,0,0,1,3.84,8.88h-5a8.44,8.44,0,0,0-2.13-5.43,9.43,9.43,0,0,0-7-2.85,9.85,9.85,0,0,0-7.07,3c-3.18,3.29-3.29,8.55-3.29,12.61s.11,9.32,3.29,12.61a9.85,9.85,0,0,0,7.07,3,9.6,9.6,0,0,0,7.07-3,8.94,8.94,0,0,0,2.14-5.59h5A13.54,13.54,0,0,1,125.69,166.71Z"/><path class="cls-3" d="M147.55,135.79v34.32h-4.94V135.79H131v-4.55h28.07v4.55Z"/><path class="cls-3" d="M165.3,170.11V131.24h5v38.87Z"/><path class="cls-3" d="M204.34,170.11l-3.18-9.21H184.27l-3.12,9.21h-4.94l13.71-38.87h5.7l13.76,38.87Zm-11.68-34-6.85,20.17h13.76Z"/><path class="cls-3" d="M247.92,170.11V137.32l-12.07,32.24H232L220,137.05v33.06h-4.67V131.24h7l11.74,31.63,11.67-31.63h6.86v38.87Z"/></g></g></svg>