<svg xmlns="http://www.w3.org/2000/svg" viewBox="0 0 491.64 97.29"><defs><style>.cls-1{fill:#2c55a2;}</style></defs><title>sictiam</title><g id="Calque_2" data-name="Calque 2"><g id="Calque_1-2" data-name="Calque 1"><path class="cls-1" d="M63.45,87.77C57,94.12,46.93,97.16,36.88,97.16c-11.37,0-20.49-3.17-26.83-9A31.06,31.06,0,0,1,0,65.7H12.29A21.4,21.4,0,0,0,18.9,80.5c4.23,4.1,11.37,5.82,18,5.82,7.14,0,13.22-1.45,17.45-5.42a13.81,13.81,0,0,0,4.76-11c0-7.27-4.63-13.35-15.73-15.07L28.55,52.61c-14-2.11-25-9.91-25-24.85a25.82,25.82,0,0,1,8.19-18.5C18.24,3.17,26.57,0,36.35,0c9.12,0,18.11,3,24.32,9a28.12,28.12,0,0,1,9,20.09H57.37a19.5,19.5,0,0,0-4.63-11.76c-3.57-4.1-9.25-6.48-16.52-6.48-6.74,0-12.56,1.85-16.66,6.48A14.88,14.88,0,0,0,15.73,27.5c0,8.46,7,12.29,14,13.21,5.29.67,10.45,1.59,15.6,2.39,15.6,2.24,26,11.76,26,26.57A24.39,24.39,0,0,1,63.45,87.77Z"/><path class="cls-1" d="M91.19,95.44V1.72h12V95.44Z"/><path class="cls-1" d="M185.7,87.24a36.74,36.74,0,0,1-50.5,0C125,77.33,123.44,63.58,123.44,48.65S125,20,135.2,10.05A36.23,36.23,0,0,1,160.58,0c10.18,0,19.3,4,25,9.65a32,32,0,0,1,9.25,21.42H182.66A20.38,20.38,0,0,0,177.5,18c-3.7-4.1-9.78-6.88-16.92-6.88a23.84,23.84,0,0,0-17.05,7.14c-7.67,7.94-7.93,20.63-7.93,30.41s.26,22.47,7.93,30.4a23.8,23.8,0,0,0,17.05,7.14,23.2,23.2,0,0,0,17.06-7.14,21.46,21.46,0,0,0,5.15-13.48H195A32.6,32.6,0,0,1,185.7,87.24Z"/><path class="cls-1" d="M238.4,12.69V95.44H226.51V12.69H198.62v-11H266.3v11Z"/><path class="cls-1" d="M281.22,95.44V1.72h12V95.44Z"/><path class="cls-1" d="M375.33,95.44l-7.67-22.21H327l-7.54,22.21H307.52l33-93.72h13.75l33.18,93.72ZM347.17,13.49,330.65,62.13h33.18Z"/><path class="cls-1" d="M480.4,95.44v-79L451.32,94.12h-9.25L413,15.73V95.44H401.75V1.72h16.92L447,78,475.11,1.72h16.53V95.44Z"/></g></g></svg>