<svg xmlns="http://www.w3.org/2000/svg" viewBox="0 0 1891.99 524.81"><defs><style>.cls-1{fill:#6f428f;}</style></defs><title>LOGO_OZWILLO</title><g id="Calque_2" data-name="Calque 2"><g id="Calque_1-2" data-name="Calque 1"><path class="cls-1" d="M806.8,390.11l-39.77,98A64.77,64.77,0,0,1,755.5,511.2a38.44,38.44,0,0,1-28.23,11.74,37.8,37.8,0,0,1-28-11.74,63,63,0,0,1-11.73-23.06L612.93,304.21a145.25,145.25,0,0,1-5-19.9,39.74,39.74,0,0,1,39.78-39.77A38.82,38.82,0,0,1,676,256.08a64.45,64.45,0,0,1,11.33,23.25h.19l39.77,94.45L767,279.33h.2a1.77,1.77,0,0,1,.19-.6,39.71,39.71,0,0,1,39.38-34.21q16.51,0,27.25,10.94,10.55,10.93,12.13,23.27a1.63,1.63,0,0,1,.2.6h.2l39.76,94.45,39.77-94.45h.2a62.74,62.74,0,0,1,11.53-23.25,39.8,39.8,0,0,1,67.84,28.23,147.85,147.85,0,0,1-5,19.9L926.13,488.14a64.59,64.59,0,0,1-11.52,23.06,38.53,38.53,0,0,1-28.24,11.74,37.81,37.81,0,0,1-28-11.74,63.2,63.2,0,0,1-11.73-23.06Z"/><path class="cls-1" d="M1139.18,483.17a39.78,39.78,0,1,1-79.55,0V284.33a39.78,39.78,0,1,1,79.55,0Z"/><path class="cls-1" d="M1732.91,522.94q-65.82,0-112.44-46.62t-46.65-112.46q0-65.82,46.65-112.44t112.44-46.63q65.82,0,112.46,46.63T1892,363.86q0,65.85-46.62,112.46t-112.46,46.62m56.28-102.8q23.26-23.26,23.27-56.28t-23.27-56.28q-23.28-23.25-56.28-23.25t-56.26,23.25q-23.28,23.28-23.27,56.28t23.27,56.28q23.25,23.26,56.26,23.27t56.28-23.27"/><path class="cls-1" d="M1367,453.3a38.7,38.7,0,0,0-28.4-11.73,40,40,0,0,1-40.1-40.11V380.19a43.13,43.13,0,0,0,.38-5.49V132.37a40.38,40.38,0,1,0-80.76,0V374.7c0,1.28.07,2.54.16,3.77v23q0,49.95,35.19,85.13t85.13,35.19A40.13,40.13,0,0,0,1367,453.3"/><path class="cls-1" d="M1552.81,453.3a38.68,38.68,0,0,0-28.39-11.73,40.07,40.07,0,0,1-40.11-40.11V380.19a41.37,41.37,0,0,0,.39-5.49V40.39a38.9,38.9,0,0,0-11.8-28.57,40.46,40.46,0,0,0-57.16,0,38.91,38.91,0,0,0-11.81,28.57V374.7c0,1.28.07,2.54.17,3.77v23q0,49.95,35.19,85.13t85.13,35.19a40.13,40.13,0,0,0,28.39-68.48"/><path class="cls-1" d="M1099.4,204.78A39.72,39.72,0,0,1,1059.63,165a39.77,39.77,0,1,1,67.91,28.14,38.28,38.28,0,0,1-28.14,11.64"/><path class="cls-1" d="M159.07,522.94q-65.83,0-112.45-46.62T0,363.86Q0,298,46.62,251.42t112.45-46.63q65.82,0,112.45,46.63t46.63,112.44q0,65.85-46.63,112.46T159.07,522.94m56.28-102.8q23.27-23.26,23.26-56.28t-23.26-56.28q-23.28-23.25-56.28-23.25T102.8,307.58q-23.26,23.28-23.27,56.28t23.27,56.28q23.27,23.26,56.27,23.27t56.28-23.27"/><path class="cls-1" d="M536.57,445.34a39.74,39.74,0,1,1,0,79.47H377.64a39.77,39.77,0,0,1-28-67.95l105.1-130.71H377.64a39.73,39.73,0,1,1,0-79.46H536.57a39.74,39.74,0,0,1,28.21,67.72L459.5,445.34Z"/></g></g></svg>