<svg xmlns="http://www.w3.org/2000/svg" viewBox="0 0 182.29 139.51"><defs><style>.cls-1{fill:none;stroke:#fff;stroke-linecap:round;stroke-linejoin:round;stroke-width:10px;}.cls-2{fill:#fff;}</style></defs><title>Fichier 10</title><g id="Calque_2" data-name="Calque 2"><g id="Calque_1-2" data-name="Calque 1"><path class="cls-1" d="M139.83,111.94a7.11,7.11,0,0,0,.84-.11,38.59,38.59,0,1,0-13.1-75.49C119.3,17.87,101.11,5,79.91,5c-26.73,0-48.74,20.41-52,46.77A30.37,30.37,0,0,0,5,81.38c0,16.88,13.41,30.56,30,30.56"/><path class="cls-2" d="M116.27,84H64a6.54,6.54,0,0,0-6.54,6.53V133A6.54,6.54,0,0,0,64,139.51h52.28A6.53,6.53,0,0,0,122.8,133V90.49A6.53,6.53,0,0,0,116.27,84Zm-22.6,32,3,10.49H83.59l3-10.49a9.8,9.8,0,1,1,7.08,0Z"/><path class="cls-2" d="M65.21,90.17,59.33,78.5A26.14,26.14,0,1,1,106,55L109,60.82l-8.76,4.41-2.94-5.84a16.34,16.34,0,1,0-29.18,14.7L74,85.76Z"/></g></g></svg>