<svg id="svg" version="1.1" xmlns="http://www.w3.org/2000/svg" xmlns:xlink="http://www.w3.org/1999/xlink" width="400" height="196.2072468675923" viewBox="0, 0, 400,196.2072468675923"><g id="svgg"><path id="path0" d="M347.750 65.845 C 342.651 66.439,337.824 67.698,334.109 69.403 C 331.603 70.554,331.199 70.761,329.417 71.809 C 314.736 80.441,305.833 96.178,305.833 113.498 C 305.833 119.919,307.228 127.202,309.330 131.750 C 309.415 131.933,309.858 132.915,310.315 133.931 C 313.814 141.711,319.790 148.598,327.333 153.547 C 341.506 162.844,360.263 163.534,375.417 155.317 C 385.918 149.622,393.915 139.982,397.670 128.491 C 400.436 120.027,400.714 109.486,398.395 101.023 C 398.254 100.506,398.077 99.858,398.002 99.583 C 397.208 96.647,394.568 90.580,393.313 88.808 C 393.141 88.564,393.000 88.322,393.000 88.269 C 393.000 88.216,392.611 87.590,392.136 86.878 C 387.850 80.458,383.352 76.137,376.627 71.978 C 368.940 67.224,357.239 64.739,347.750 65.845 M356.507 80.241 C 377.247 82.572,389.780 104.235,382.646 125.417 C 373.404 152.855,334.333 153.793,323.662 126.833 C 320.170 118.011,320.440 106.884,324.349 98.525 C 324.707 97.760,325.000 97.110,325.000 97.080 C 325.000 96.932,326.689 94.133,327.261 93.333 C 334.146 83.709,344.825 78.928,356.507 80.241 M207.000 163.503 C 194.024 166.509,189.575 182.591,199.223 191.617 C 208.521 200.315,223.794 195.536,226.491 183.084 C 228.994 171.532,218.379 160.867,207.000 163.503 M213.583 166.958 C 224.160 169.714,226.698 183.901,217.750 190.250 C 205.912 198.649,191.751 183.672,200.258 171.750 C 200.886 170.870,201.306 170.447,202.969 169.023 C 205.341 166.991,210.132 166.059,213.583 166.958 " stroke="none" fill="#63bcec" fill-rule="evenodd"></path><path id="path1" d="M170.333 40.500 C 170.333 64.449,170.272 81.000,170.183 81.000 C 170.100 81.000,169.894 80.785,169.725 80.523 C 166.253 75.141,157.644 69.246,150.083 67.073 C 142.584 64.918,132.384 65.245,125.261 67.869 C 124.522 68.142,123.691 68.431,123.415 68.512 C 123.139 68.594,121.901 69.170,120.665 69.793 C 109.421 75.460,101.578 85.635,98.152 99.000 C 97.664 100.906,97.568 101.386,97.106 104.250 C 95.112 116.608,97.432 130.162,103.198 139.844 C 103.502 140.354,103.970 141.141,104.238 141.594 C 105.837 144.288,109.166 148.218,112.000 150.757 C 113.434 152.042,117.603 155.167,117.883 155.167 C 117.929 155.167,118.480 155.480,119.108 155.862 C 122.321 157.818,127.503 159.687,131.500 160.332 C 132.188 160.443,133.162 160.610,133.667 160.704 C 136.846 161.293,144.095 160.977,148.220 160.068 C 156.429 158.260,164.228 153.432,169.263 147.042 C 169.714 146.470,170.140 146.001,170.208 146.001 C 170.277 146.000,170.333 148.813,170.333 152.250 L 170.333 158.500 178.000 158.500 L 185.667 158.500 185.667 79.250 L 185.667 0.000 178.000 0.000 L 170.333 0.000 170.333 40.500 M208.833 23.323 C 200.335 24.915,197.043 35.675,203.166 41.845 C 210.621 49.359,223.093 43.266,221.673 32.803 C 220.801 26.375,215.082 22.153,208.833 23.323 M38.167 65.847 C 32.459 66.578,28.807 67.603,24.583 69.658 C 22.531 70.657,18.939 72.854,17.809 73.801 C 17.593 73.982,16.733 74.698,15.898 75.392 C 13.634 77.274,11.145 79.986,9.147 82.750 C -3.627 100.413,-2.822 128.809,10.935 145.833 C 20.509 157.680,36.860 163.532,51.250 160.262 C 57.426 158.858,61.498 157.049,65.917 153.745 C 67.852 152.298,71.072 149.258,72.437 147.589 C 72.884 147.042,73.360 146.461,73.495 146.297 C 73.630 146.134,73.799 146.000,73.870 146.000 C 73.942 146.000,74.000 148.813,74.000 152.250 L 74.000 158.500 81.667 158.500 L 89.333 158.500 89.333 113.250 L 89.333 68.000 81.667 68.000 L 74.000 68.000 74.000 74.500 C 74.000 80.647,73.942 81.452,73.550 80.767 C 73.092 79.968,69.220 75.897,67.664 74.579 C 62.550 70.249,56.332 67.308,49.917 66.184 C 46.965 65.667,40.925 65.493,38.167 65.847 M270.583 65.845 C 244.693 68.862,226.385 90.422,227.853 116.167 C 228.002 118.778,228.337 121.624,228.669 123.083 C 229.612 127.238,230.104 128.879,231.294 131.833 C 231.986 133.551,232.924 135.485,234.123 137.667 C 247.160 161.393,280.410 168.366,303.371 152.188 L 303.993 151.750 303.996 141.458 C 304.001 129.395,304.184 130.179,301.991 132.875 C 300.487 134.725,297.257 138.030,295.917 139.091 C 295.458 139.453,295.046 139.790,295.000 139.839 C 293.065 141.906,286.390 144.967,281.735 145.922 C 276.454 147.005,269.155 146.642,264.509 145.066 C 239.560 136.600,235.945 99.601,258.620 84.786 C 259.281 84.354,259.855 84.000,259.895 84.000 C 259.935 84.000,260.406 83.752,260.942 83.450 C 264.559 81.407,270.305 79.997,274.994 80.002 C 285.191 80.012,293.717 84.374,301.299 93.458 C 303.523 96.124,303.333 96.917,303.333 84.956 L 303.333 74.745 301.042 73.217 C 296.261 70.027,290.964 67.806,285.167 66.560 C 281.445 65.760,274.311 65.410,270.583 65.845 M203.167 113.250 L 203.167 158.500 210.833 158.500 L 218.500 158.500 218.500 113.250 L 218.500 68.000 210.833 68.000 L 203.167 68.000 203.167 113.250 M48.500 80.242 C 54.756 80.958,60.188 83.265,64.083 86.858 C 64.450 87.196,64.943 87.624,65.179 87.809 C 69.411 91.123,73.254 99.152,74.524 107.333 C 74.801 109.117,74.803 116.391,74.527 118.250 C 73.745 123.518,72.369 128.006,70.551 131.224 C 70.248 131.760,70.000 132.235,70.000 132.280 C 70.000 132.782,66.470 137.379,64.839 139.001 C 55.608 148.181,39.254 149.239,28.581 141.346 C 16.143 132.148,11.933 110.557,19.723 95.923 C 21.920 91.797,25.257 87.763,28.417 85.414 C 28.783 85.142,29.121 84.878,29.167 84.828 C 29.808 84.132,33.960 82.052,36.088 81.361 C 39.910 80.120,44.118 79.740,48.500 80.242 M144.917 80.243 C 149.780 80.827,153.776 82.178,157.032 84.341 C 157.577 84.704,158.059 85.000,158.102 85.000 C 158.317 85.000,161.079 87.373,162.250 88.564 C 169.557 95.992,172.639 107.902,170.517 120.500 C 169.943 123.903,169.049 126.673,167.301 130.458 C 163.749 138.152,156.213 144.360,148.621 145.847 C 127.828 149.922,112.318 135.800,112.269 112.750 C 112.226 92.329,126.575 78.041,144.917 80.243 M342.285 164.708 C 340.768 168.208,339.188 171.817,338.910 172.417 C 338.580 173.128,336.876 177.061,336.382 178.250 C 335.971 179.239,335.688 179.884,334.881 181.667 C 334.653 182.171,334.132 183.371,333.723 184.333 C 333.314 185.296,332.841 186.383,332.672 186.750 C 332.502 187.117,332.123 187.979,331.830 188.667 C 331.536 189.354,331.080 190.391,330.815 190.970 C 330.550 191.549,330.333 192.053,330.333 192.090 C 330.333 192.127,330.153 192.553,329.934 193.037 C 329.338 194.347,329.000 195.189,329.000 195.359 C 329.000 195.444,329.856 195.490,330.950 195.464 L 332.899 195.417 333.541 193.917 C 333.895 193.092,334.520 191.601,334.930 190.605 C 335.341 189.608,335.826 188.465,336.009 188.064 C 336.192 187.663,336.413 187.147,336.500 186.917 L 336.658 186.500 343.288 186.501 L 349.917 186.501 350.598 188.126 C 350.973 189.019,351.798 191.042,352.432 192.622 L 353.583 195.493 355.621 195.497 L 357.658 195.500 357.500 195.083 C 357.413 194.853,357.197 194.347,357.021 193.958 C 356.844 193.569,355.753 191.000,354.595 188.250 C 353.438 185.500,352.276 182.762,352.013 182.167 C 351.750 181.571,351.106 180.071,350.582 178.833 C 350.058 177.596,349.495 176.283,349.331 175.917 C 349.167 175.550,348.769 174.612,348.447 173.833 C 348.125 173.054,347.399 171.329,346.834 170.000 C 346.268 168.671,345.446 166.721,345.007 165.667 C 343.914 163.045,343.523 162.167,343.449 162.167 C 343.414 162.167,342.890 163.310,342.285 164.708 M385.627 162.667 C 384.678 164.820,383.359 167.845,382.719 169.333 C 382.305 170.296,381.793 171.458,381.581 171.917 C 381.216 172.704,380.561 174.209,378.642 178.667 C 378.188 179.721,377.714 180.808,377.588 181.083 C 377.463 181.358,377.083 182.221,376.745 183.000 C 376.406 183.779,375.913 184.891,375.648 185.470 C 375.383 186.049,375.167 186.556,375.167 186.597 C 375.167 186.637,375.021 186.988,374.844 187.377 C 374.039 189.138,372.333 193.015,372.333 193.083 C 372.333 193.124,372.108 193.650,371.833 194.250 C 371.558 194.850,371.333 195.380,371.333 195.426 C 371.333 195.472,372.240 195.489,373.348 195.463 L 375.362 195.417 376.522 192.667 C 377.160 191.154,377.992 189.147,378.370 188.206 L 379.057 186.496 385.725 186.540 L 392.393 186.583 393.030 188.167 C 393.380 189.037,393.749 189.938,393.851 190.167 C 394.595 191.848,395.761 194.662,395.906 195.125 C 396.024 195.506,400.000 195.743,400.000 195.370 C 400.000 195.298,399.732 194.605,399.405 193.828 C 398.872 192.566,398.665 192.085,398.153 190.917 C 397.967 190.493,396.990 188.194,396.170 186.250 C 395.822 185.425,395.107 183.737,394.582 182.500 C 394.058 181.262,393.377 179.639,393.070 178.892 C 392.763 178.145,392.297 177.058,392.035 176.475 C 391.772 175.893,391.382 174.967,391.168 174.417 C 390.954 173.867,390.723 173.342,390.654 173.250 C 390.585 173.158,390.291 172.483,390.000 171.750 C 389.709 171.017,389.335 170.117,389.170 169.750 C 389.005 169.383,388.367 167.883,387.752 166.417 C 387.137 164.950,386.465 163.375,386.259 162.917 L 385.883 162.083 385.627 162.667 M265.504 178.875 L 265.500 195.500 267.333 195.500 L 269.167 195.500 269.167 183.387 L 269.167 171.275 270.792 172.999 C 271.685 173.948,272.679 174.996,273.000 175.328 C 273.321 175.661,274.183 176.566,274.917 177.341 C 278.988 181.643,282.229 185.071,283.333 186.243 C 284.021 186.973,284.771 187.761,285.000 187.994 C 285.398 188.399,289.436 192.665,291.672 195.042 C 292.386 195.800,292.855 196.167,293.115 196.167 L 293.500 196.167 293.500 179.917 L 293.500 163.667 291.750 163.667 L 290.000 163.667 289.997 175.875 L 289.994 188.083 288.632 186.667 C 287.883 185.887,286.741 184.687,286.094 183.998 C 285.446 183.310,283.604 181.360,282.000 179.665 C 280.396 177.970,278.558 176.023,277.917 175.337 C 277.275 174.652,276.637 173.974,276.500 173.832 C 275.431 172.724,272.651 169.794,270.499 167.507 C 269.079 165.998,267.375 164.198,266.713 163.507 L 265.509 162.250 265.504 178.875 M228.333 179.562 L 228.333 195.500 230.167 195.500 L 232.000 195.500 232.000 188.609 L 232.000 181.719 234.792 181.612 C 238.932 181.453,240.613 180.896,242.417 179.083 C 246.337 175.146,245.676 168.061,241.123 165.209 C 239.097 163.941,238.499 163.832,232.958 163.718 L 228.333 163.623 228.333 179.562 M246.167 179.583 L 246.167 195.500 254.333 195.500 L 262.500 195.500 262.500 193.750 L 262.500 192.000 256.167 192.000 L 249.833 192.000 249.833 185.917 L 249.833 179.833 256.000 179.833 L 262.167 179.833 262.167 178.083 L 262.167 176.333 256.000 176.333 L 249.833 176.333 249.833 171.750 L 249.833 167.167 256.167 167.167 L 262.500 167.167 262.500 165.417 L 262.500 163.667 254.333 163.667 L 246.167 163.667 246.167 179.583 M306.667 179.561 L 306.667 195.500 310.625 195.497 C 318.842 195.491,321.737 194.640,325.407 191.154 C 330.305 186.501,331.651 178.305,328.539 172.083 C 325.527 166.064,321.157 163.902,311.625 163.718 L 306.667 163.623 306.667 179.561 M355.000 165.417 L 355.000 167.167 358.833 167.167 L 362.667 167.167 362.667 181.333 L 362.667 195.500 364.417 195.500 L 366.167 195.500 366.167 181.333 L 366.167 167.167 370.000 167.167 L 373.833 167.167 373.833 165.417 L 373.833 163.667 364.417 163.667 L 355.000 163.667 355.000 165.417 M236.828 167.355 C 239.848 167.854,241.337 169.628,241.332 172.721 C 241.325 176.599,238.752 178.333,233.007 178.333 L 232.000 178.333 232.000 172.750 L 232.000 167.167 233.843 167.167 C 234.856 167.167,236.200 167.252,236.828 167.355 M316.583 167.409 C 326.305 169.173,329.865 180.729,323.060 188.434 C 320.920 190.858,317.657 192.000,312.875 192.000 L 310.333 192.000 310.333 179.583 L 310.333 167.167 312.792 167.167 C 314.216 167.167,315.811 167.269,316.583 167.409 M347.726 181.216 C 348.152 182.205,348.500 183.049,348.500 183.091 C 348.500 183.133,346.170 183.167,343.322 183.167 L 338.144 183.167 338.261 182.792 C 338.325 182.585,338.705 181.685,339.105 180.791 C 339.506 179.896,339.833 179.132,339.833 179.093 C 339.833 179.020,342.169 173.479,342.578 172.583 C 342.703 172.308,342.935 171.759,343.093 171.362 L 343.380 170.642 345.166 175.029 C 346.148 177.442,347.300 180.226,347.726 181.216 M386.108 171.458 C 386.249 171.802,386.478 172.346,386.616 172.667 C 386.754 172.987,386.927 173.400,387.001 173.583 C 387.074 173.767,387.435 174.629,387.802 175.500 C 388.892 178.086,390.833 182.920,390.833 183.048 C 390.833 183.113,388.546 183.167,385.750 183.167 C 382.899 183.167,380.667 183.102,380.667 183.019 C 380.667 182.937,381.010 182.056,381.431 181.060 C 381.851 180.065,382.458 178.612,382.779 177.833 C 383.558 175.944,383.832 175.305,384.009 174.969 C 384.090 174.815,384.419 174.035,384.741 173.238 C 385.856 170.471,385.755 170.603,386.108 171.458 " stroke="none" fill="#3c3c3c" fill-rule="evenodd"></path><path id="path2" d="" stroke="none" fill="#50c0c4" fill-rule="evenodd"></path><path id="path3" d="" stroke="none" fill="#508068" fill-rule="evenodd"></path><path id="path4" d="" stroke="none" fill="#503c6c" fill-rule="evenodd"></path></g></svg>