<svg xmlns="http://www.w3.org/2000/svg" viewBox="0 0 207.45 58.21"><defs><style>.cls-1{fill:#fff;}</style></defs><title>Fichier 2</title><g id="Calque_2" data-name="Calque 2"><g id="Calque_1-2" data-name="Calque 1"><path class="cls-1" d="M108.32,56.75a5.36,5.36,0,0,1-7.35,0c-1.48-1.44-1.75-3.44-1.75-5.62S99.49,47,101,45.51a5.36,5.36,0,0,1,7.35,0c1.48,1.45,1.75,3.45,1.75,5.62S109.8,55.31,108.32,56.75Zm-1.19-10a3.54,3.54,0,0,0-5,0c-1.11,1.15-1.17,3-1.17,4.42s.06,3.27,1.17,4.43a3.54,3.54,0,0,0,5,0c1.11-1.16,1.17-3,1.17-4.43S108.24,47.86,107.13,46.71Z"/><path class="cls-1" d="M122.4,51.52a4.55,4.55,0,0,1-3.34,1.13h-3.37v5.29H114V44.3H119a4.5,4.5,0,0,1,3.46,1.23,4.66,4.66,0,0,1-.1,6ZM119,45.86h-3.31v5.23H119c1.83,0,2.75-.84,2.75-2.67S120.69,45.86,119,45.86Z"/><path class="cls-1" d="M183.09,57.54,182,54.31H176L175,57.54h-1.73L178,43.9h2l4.83,13.64ZM179,45.61l-2.41,7.09h4.83Z"/><path class="cls-1" d="M191,45.16V57.21h-1.73V45.16h-4.06V43.57h9.85v1.59Z"/><path class="cls-1" d="M168.86,56.33a5.13,5.13,0,0,1-3.58,1.37h-4.75V44.05h4.75a5.14,5.14,0,0,1,3.58,1.39c1.5,1.42,1.75,3.46,1.75,5.43S170.34,54.91,168.86,56.33Zm-1.15-9.76a3.47,3.47,0,0,0-2.43-.94h-3V56.12h3a3.47,3.47,0,0,0,2.43-.94c1.08-1.1,1.17-2.85,1.17-4.31S168.79,47.69,167.71,46.57Z"/><path class="cls-1" d="M127,57.7V44.05h9.12v1.58h-7.4v4.16h6.5V51.4h-6.5v4.72h7.4V57.7Z"/><path class="cls-1" d="M148.47,57.82l-6.7-11v11h-1.66V44.17H142l6.69,11v-11h1.66V57.82Z"/><path class="cls-1" d="M26.32,36.4c-2.69,2.64-6.86,3.9-11,3.9-4.72,0-8.5-1.32-11.13-3.73A12.87,12.87,0,0,1,0,27.25H5.1a8.88,8.88,0,0,0,2.74,6.14c1.75,1.7,4.71,2.41,7.46,2.41,3,0,5.48-.6,7.23-2.25a5.7,5.7,0,0,0,2-4.55c0-3-1.92-5.53-6.53-6.25l-6.14-.93C6,20.94,1.48,17.71,1.48,11.51a10.73,10.73,0,0,1,3.4-7.67A14.46,14.46,0,0,1,15.08,0,14.58,14.58,0,0,1,25.16,3.73a11.67,11.67,0,0,1,3.73,8.33h-5.1a8.14,8.14,0,0,0-1.91-4.88A8.78,8.78,0,0,0,15,4.5,8.78,8.78,0,0,0,8.11,7.18,6.21,6.21,0,0,0,6.52,11.4c0,3.51,2.91,5.1,5.82,5.49,2.19.27,4.33.65,6.47,1,6.46.94,10.8,4.88,10.8,11A10.11,10.11,0,0,1,26.32,36.4Z"/><path class="cls-1" d="M37.82,39.59V.71h5V39.59Z"/><path class="cls-1" d="M77,36.19a15.26,15.26,0,0,1-20.94,0c-4.23-4.12-4.88-9.82-4.88-16s.65-11.9,4.88-16A15,15,0,0,1,66.6,0,14.86,14.86,0,0,1,77,4a13.31,13.31,0,0,1,3.83,8.89h-5a8.48,8.48,0,0,0-2.14-5.43,9.41,9.41,0,0,0-7-2.85,9.87,9.87,0,0,0-7.07,3c-3.18,3.29-3.29,8.55-3.29,12.61s.11,9.32,3.29,12.61a9.87,9.87,0,0,0,7.07,3,9.64,9.64,0,0,0,7.08-3,8.9,8.9,0,0,0,2.13-5.6h5A13.59,13.59,0,0,1,77,36.19Z"/><path class="cls-1" d="M98.88,5.26V39.59H94V5.26H82.38V.71h28.07V5.26Z"/><path class="cls-1" d="M116.64,39.59V.71h5V39.59Z"/><path class="cls-1" d="M155.67,39.59l-3.18-9.22H135.61l-3.13,9.22h-4.93L141.25.71H147l13.76,38.88ZM144,5.59l-6.85,20.18H150.9Z"/><path class="cls-1" d="M199.25,39.59V6.8L187.19,39h-3.84L171.29,6.53V39.59h-4.66V.71h7l11.73,31.64L197.06.71h6.85V39.59Z"/><path class="cls-1" d="M205.68,57.54l-1.12-3.23h-5.92l-1.1,3.23h-1.73l4.81-13.64h2l4.83,13.64Zm-4.1-11.93-2.4,7.09H204Z"/></g></g></svg>